<mxfile host="app.diagrams.net" modified="2023-12-05T18:20:37.032Z" agent="Mozilla/5.0 (X11; Linux x86_64) AppleWebKit/537.36 (KHTML, like Gecko) Chrome/119.0.0.0 Safari/537.36" etag="bxeU74otoXoWFM5KoJam" version="22.1.5" type="device">
  <diagram id="R2lEEEUBdFMjLlhIrx00" name="Page-1">
    <mxGraphModel dx="-227" dy="378" grid="1" gridSize="5" guides="1" tooltips="1" connect="1" arrows="1" fold="1" page="1" pageScale="1" pageWidth="850" pageHeight="1100" background="#ffffff" math="0" shadow="0" extFonts="Permanent Marker^https://fonts.googleapis.com/css?family=Permanent+Marker">
      <root>
        <mxCell id="0" />
        <mxCell id="1" parent="0" />
        <mxCell id="TxClS1IGf8YN1uUrBQyQ-38" value="Medical Appointment" style="whiteSpace=wrap;html=1;align=center;" parent="1" vertex="1">
          <mxGeometry x="1361.5" y="318" width="100" height="40" as="geometry" />
        </mxCell>
        <mxCell id="TxClS1IGf8YN1uUrBQyQ-40" value="Performs" style="shape=rhombus;perimeter=rhombusPerimeter;whiteSpace=wrap;html=1;align=center;" parent="1" vertex="1">
          <mxGeometry x="1351.5" y="198" width="120" height="60" as="geometry" />
        </mxCell>
        <mxCell id="TxClS1IGf8YN1uUrBQyQ-41" value="Gathers" style="shape=rhombus;perimeter=rhombusPerimeter;whiteSpace=wrap;html=1;align=center;" parent="1" vertex="1">
          <mxGeometry x="1351.41" y="418" width="120" height="60" as="geometry" />
        </mxCell>
        <mxCell id="TxClS1IGf8YN1uUrBQyQ-44" value="Sample" style="whiteSpace=wrap;html=1;align=center;" parent="1" vertex="1">
          <mxGeometry x="1361" y="532" width="100" height="40" as="geometry" />
        </mxCell>
        <mxCell id="TxClS1IGf8YN1uUrBQyQ-46" value="Research&lt;br&gt;Personnel" style="whiteSpace=wrap;html=1;align=center;" parent="1" vertex="1">
          <mxGeometry x="984" y="534.13" width="100" height="40" as="geometry" />
        </mxCell>
        <mxCell id="TxClS1IGf8YN1uUrBQyQ-47" value="Clinical&lt;br&gt;Study" style="whiteSpace=wrap;html=1;align=center;" parent="1" vertex="1">
          <mxGeometry x="1169" y="852.88" width="100" height="40" as="geometry" />
        </mxCell>
        <mxCell id="TxClS1IGf8YN1uUrBQyQ-55" value="Works-in" style="shape=rhombus;perimeter=rhombusPerimeter;whiteSpace=wrap;html=1;align=center;direction=west;" parent="1" vertex="1">
          <mxGeometry x="974" y="634.13" width="120" height="60" as="geometry" />
        </mxCell>
        <mxCell id="TxClS1IGf8YN1uUrBQyQ-60" value="" style="endArrow=none;html=1;rounded=0;exitX=0.5;exitY=1;exitDx=0;exitDy=0;entryX=0.5;entryY=0;entryDx=0;entryDy=0;" parent="1" source="TxClS1IGf8YN1uUrBQyQ-40" target="TxClS1IGf8YN1uUrBQyQ-38" edge="1">
          <mxGeometry relative="1" as="geometry">
            <mxPoint x="1476.5" y="233" as="sourcePoint" />
            <mxPoint x="1436.5" y="303" as="targetPoint" />
          </mxGeometry>
        </mxCell>
        <mxCell id="TxClS1IGf8YN1uUrBQyQ-64" value="" style="endArrow=none;html=1;rounded=0;entryX=0.5;entryY=0;entryDx=0;entryDy=0;exitX=0.5;exitY=1;exitDx=0;exitDy=0;" parent="1" source="TxClS1IGf8YN1uUrBQyQ-38" target="TxClS1IGf8YN1uUrBQyQ-41" edge="1">
          <mxGeometry relative="1" as="geometry">
            <mxPoint x="1496.5" y="253" as="sourcePoint" />
            <mxPoint x="1586.5" y="253" as="targetPoint" />
          </mxGeometry>
        </mxCell>
        <mxCell id="TxClS1IGf8YN1uUrBQyQ-68" value="" style="endArrow=none;html=1;rounded=0;entryX=0.5;entryY=0;entryDx=0;entryDy=0;exitX=0.5;exitY=1;exitDx=0;exitDy=0;" parent="1" source="TxClS1IGf8YN1uUrBQyQ-41" target="TxClS1IGf8YN1uUrBQyQ-44" edge="1">
          <mxGeometry relative="1" as="geometry">
            <mxPoint x="1516.5" y="273" as="sourcePoint" />
            <mxPoint x="1606.5" y="273" as="targetPoint" />
          </mxGeometry>
        </mxCell>
        <mxCell id="-haGkilbFdXosV5tAH27-1" value="Undergoes" style="shape=rhombus;perimeter=rhombusPerimeter;whiteSpace=wrap;html=1;align=center;direction=west;" parent="1" vertex="1">
          <mxGeometry x="1351" y="842.88" width="120" height="60" as="geometry" />
        </mxCell>
        <mxCell id="-haGkilbFdXosV5tAH27-3" value="" style="endArrow=none;html=1;rounded=0;exitX=1;exitY=0.5;exitDx=0;exitDy=0;entryX=1;entryY=0.5;entryDx=0;entryDy=0;" parent="1" source="TxClS1IGf8YN1uUrBQyQ-47" target="-haGkilbFdXosV5tAH27-1" edge="1">
          <mxGeometry width="50" height="50" relative="1" as="geometry">
            <mxPoint x="1187" y="762.88" as="sourcePoint" />
            <mxPoint x="1237" y="712.88" as="targetPoint" />
          </mxGeometry>
        </mxCell>
        <mxCell id="-haGkilbFdXosV5tAH27-4" value="" style="endArrow=none;html=1;rounded=0;exitX=0.5;exitY=1;exitDx=0;exitDy=0;entryX=0.5;entryY=1;entryDx=0;entryDy=0;" parent="1" source="TxClS1IGf8YN1uUrBQyQ-55" target="TxClS1IGf8YN1uUrBQyQ-46" edge="1">
          <mxGeometry width="50" height="50" relative="1" as="geometry">
            <mxPoint x="1029" y="583.13" as="sourcePoint" />
            <mxPoint x="1034" y="591.13" as="targetPoint" />
          </mxGeometry>
        </mxCell>
        <mxCell id="-haGkilbFdXosV5tAH27-6" value="Produces" style="shape=rhombus;perimeter=rhombusPerimeter;whiteSpace=wrap;html=1;align=center;direction=west;" parent="1" vertex="1">
          <mxGeometry x="1159" y="946.88" width="120" height="60" as="geometry" />
        </mxCell>
        <mxCell id="_0Fipz_TGaaDiRLOD5LJ-2" value="" style="endArrow=none;html=1;rounded=0;entryX=0.5;entryY=0;entryDx=0;entryDy=0;exitX=0.5;exitY=0;exitDx=0;exitDy=0;" parent="1" source="TxClS1IGf8YN1uUrBQyQ-55" target="_0Fipz_TGaaDiRLOD5LJ-1" edge="1">
          <mxGeometry relative="1" as="geometry">
            <mxPoint x="1034" y="694.13" as="sourcePoint" />
            <mxPoint x="1139" y="891.13" as="targetPoint" />
            <Array as="points" />
          </mxGeometry>
        </mxCell>
        <mxCell id="_0Fipz_TGaaDiRLOD5LJ-1" value="Research&lt;br&gt;Team" style="whiteSpace=wrap;html=1;align=center;" parent="1" vertex="1">
          <mxGeometry x="984" y="749.13" width="100" height="40" as="geometry" />
        </mxCell>
        <mxCell id="_0Fipz_TGaaDiRLOD5LJ-194" value="&lt;p style=&quot;line-height: 90%; font-size: 8px;&quot;&gt;Date&lt;/p&gt;" style="text;html=1;strokeColor=none;fillColor=none;align=center;verticalAlign=middle;whiteSpace=wrap;rounded=0;" parent="1" vertex="1">
          <mxGeometry x="1474" y="313.25" width="40" height="17.5" as="geometry" />
        </mxCell>
        <mxCell id="_0Fipz_TGaaDiRLOD5LJ-197" value="&lt;p style=&quot;line-height: 90%; font-size: 8px;&quot;&gt;MAID&lt;/p&gt;" style="text;html=1;strokeColor=none;fillColor=none;align=center;verticalAlign=middle;whiteSpace=wrap;rounded=0;" parent="1" vertex="1">
          <mxGeometry x="1475" y="346.25" width="40" height="17.5" as="geometry" />
        </mxCell>
        <mxCell id="_0Fipz_TGaaDiRLOD5LJ-201" value="" style="ellipse;whiteSpace=wrap;html=1;aspect=fixed;fillStyle=solid;fillColor=none;" parent="1" vertex="1">
          <mxGeometry x="1340.41" y="564.13" width="10" height="10" as="geometry" />
        </mxCell>
        <mxCell id="_0Fipz_TGaaDiRLOD5LJ-202" value="" style="endArrow=none;html=1;rounded=0;movable=1;resizable=1;rotatable=1;deletable=1;editable=1;locked=0;connectable=1;exitX=0.001;exitY=0.16;exitDx=0;exitDy=0;exitPerimeter=0;" parent="1" edge="1">
          <mxGeometry width="50" height="50" relative="1" as="geometry">
            <mxPoint x="1360.5" y="569.04" as="sourcePoint" />
            <mxPoint x="1350.41" y="569.04" as="targetPoint" />
          </mxGeometry>
        </mxCell>
        <mxCell id="_0Fipz_TGaaDiRLOD5LJ-203" value="&lt;p style=&quot;line-height: 90%; font-size: 8px;&quot;&gt;Availability Status&lt;/p&gt;" style="text;html=1;strokeColor=none;fillColor=none;align=center;verticalAlign=middle;whiteSpace=wrap;rounded=0;" parent="1" vertex="1">
          <mxGeometry x="1298" y="560.38" width="40" height="17.5" as="geometry" />
        </mxCell>
        <mxCell id="_0Fipz_TGaaDiRLOD5LJ-229" value="" style="ellipse;whiteSpace=wrap;html=1;aspect=fixed;" parent="1" vertex="1">
          <mxGeometry x="986.5" y="512.13" width="10" height="10" as="geometry" />
        </mxCell>
        <mxCell id="_0Fipz_TGaaDiRLOD5LJ-230" value="" style="endArrow=none;html=1;rounded=0;exitX=0.05;exitY=0.006;exitDx=0;exitDy=0;exitPerimeter=0;" parent="1" edge="1">
          <mxGeometry width="50" height="50" relative="1" as="geometry">
            <mxPoint x="991.5" y="534.13" as="sourcePoint" />
            <mxPoint x="991.44" y="522.13" as="targetPoint" />
          </mxGeometry>
        </mxCell>
        <mxCell id="_0Fipz_TGaaDiRLOD5LJ-233" value="" style="ellipse;whiteSpace=wrap;html=1;aspect=fixed;fillStyle=solid;fillColor=#000000;" parent="1" vertex="1">
          <mxGeometry x="1071.5" y="512.13" width="10" height="10" as="geometry" />
        </mxCell>
        <mxCell id="_0Fipz_TGaaDiRLOD5LJ-234" value="" style="endArrow=none;html=1;rounded=0;exitX=0.05;exitY=0.006;exitDx=0;exitDy=0;exitPerimeter=0;" parent="1" edge="1">
          <mxGeometry width="50" height="50" relative="1" as="geometry">
            <mxPoint x="1076.5" y="534.13" as="sourcePoint" />
            <mxPoint x="1076.44" y="522.13" as="targetPoint" />
          </mxGeometry>
        </mxCell>
        <mxCell id="_0Fipz_TGaaDiRLOD5LJ-244" value="&lt;p style=&quot;line-height: 90%; font-size: 8px;&quot;&gt;Password&lt;/p&gt;" style="text;html=1;strokeColor=none;fillColor=none;align=center;verticalAlign=middle;whiteSpace=wrap;rounded=0;" parent="1" vertex="1">
          <mxGeometry x="971.5" y="498.38" width="40" height="17.5" as="geometry" />
        </mxCell>
        <mxCell id="_0Fipz_TGaaDiRLOD5LJ-246" value="&lt;p style=&quot;line-height: 90%; font-size: 8px;&quot;&gt;ID&lt;/p&gt;" style="text;html=1;strokeColor=none;fillColor=none;align=center;verticalAlign=middle;whiteSpace=wrap;rounded=0;" parent="1" vertex="1">
          <mxGeometry x="1056.5" y="498.38" width="40" height="17.5" as="geometry" />
        </mxCell>
        <mxCell id="_0Fipz_TGaaDiRLOD5LJ-249" value="" style="ellipse;whiteSpace=wrap;html=1;aspect=fixed;fillStyle=solid;fillColor=#000000;" parent="1" vertex="1">
          <mxGeometry x="1094.0900000000001" y="750.88" width="10" height="10" as="geometry" />
        </mxCell>
        <mxCell id="_0Fipz_TGaaDiRLOD5LJ-250" value="" style="endArrow=none;html=1;rounded=0;movable=1;resizable=1;rotatable=1;deletable=1;editable=1;locked=0;connectable=1;exitX=0.001;exitY=0.16;exitDx=0;exitDy=0;exitPerimeter=0;" parent="1" edge="1">
          <mxGeometry width="50" height="50" relative="1" as="geometry">
            <mxPoint x="1094.0900000000001" y="755.74" as="sourcePoint" />
            <mxPoint x="1084.0000000000002" y="755.74" as="targetPoint" />
          </mxGeometry>
        </mxCell>
        <mxCell id="_0Fipz_TGaaDiRLOD5LJ-251" value="&lt;p style=&quot;line-height: 90%; font-size: 8px;&quot;&gt;Name&lt;/p&gt;" style="text;html=1;strokeColor=none;fillColor=none;align=center;verticalAlign=middle;whiteSpace=wrap;rounded=0;" parent="1" vertex="1">
          <mxGeometry x="1097.5" y="748.38" width="40" height="17.5" as="geometry" />
        </mxCell>
        <mxCell id="_0Fipz_TGaaDiRLOD5LJ-253" value="" style="endArrow=none;html=1;rounded=0;entryX=0.5;entryY=1;entryDx=0;entryDy=0;exitX=0.5;exitY=1;exitDx=0;exitDy=0;" parent="1" source="_0Fipz_TGaaDiRLOD5LJ-1" target="_0Fipz_TGaaDiRLOD5LJ-252" edge="1">
          <mxGeometry relative="1" as="geometry">
            <mxPoint x="1034" y="789.13" as="sourcePoint" />
            <mxPoint x="1139" y="891.13" as="targetPoint" />
            <Array as="points" />
          </mxGeometry>
        </mxCell>
        <mxCell id="_0Fipz_TGaaDiRLOD5LJ-252" value="Defines" style="shape=rhombus;perimeter=rhombusPerimeter;whiteSpace=wrap;html=1;align=center;direction=west;" parent="1" vertex="1">
          <mxGeometry x="974.0899999999999" y="842.88" width="120" height="60" as="geometry" />
        </mxCell>
        <mxCell id="_0Fipz_TGaaDiRLOD5LJ-254" value="" style="ellipse;whiteSpace=wrap;html=1;aspect=fixed;" parent="1" vertex="1">
          <mxGeometry x="1171.5" y="830.88" width="10" height="10" as="geometry" />
        </mxCell>
        <mxCell id="_0Fipz_TGaaDiRLOD5LJ-255" value="" style="endArrow=none;html=1;rounded=0;exitX=0.05;exitY=0.006;exitDx=0;exitDy=0;exitPerimeter=0;" parent="1" edge="1">
          <mxGeometry width="50" height="50" relative="1" as="geometry">
            <mxPoint x="1176.5" y="852.88" as="sourcePoint" />
            <mxPoint x="1176.44" y="840.88" as="targetPoint" />
          </mxGeometry>
        </mxCell>
        <mxCell id="_0Fipz_TGaaDiRLOD5LJ-258" value="" style="ellipse;whiteSpace=wrap;html=1;aspect=fixed;fillStyle=solid;fillColor=#000000;" parent="1" vertex="1">
          <mxGeometry x="1256.5" y="830.88" width="10" height="10" as="geometry" />
        </mxCell>
        <mxCell id="_0Fipz_TGaaDiRLOD5LJ-259" value="" style="endArrow=none;html=1;rounded=0;exitX=0.05;exitY=0.006;exitDx=0;exitDy=0;exitPerimeter=0;" parent="1" edge="1">
          <mxGeometry width="50" height="50" relative="1" as="geometry">
            <mxPoint x="1261.5" y="852.88" as="sourcePoint" />
            <mxPoint x="1261.44" y="840.88" as="targetPoint" />
          </mxGeometry>
        </mxCell>
        <mxCell id="_0Fipz_TGaaDiRLOD5LJ-260" value="&lt;p style=&quot;line-height: 90%; font-size: 8px;&quot;&gt;Description&lt;/p&gt;" style="text;html=1;strokeColor=none;fillColor=none;align=center;verticalAlign=middle;whiteSpace=wrap;rounded=0;" parent="1" vertex="1">
          <mxGeometry x="1156.5" y="817.13" width="40" height="17.5" as="geometry" />
        </mxCell>
        <mxCell id="_0Fipz_TGaaDiRLOD5LJ-262" value="&lt;p style=&quot;line-height: 90%; font-size: 8px;&quot;&gt;CSID&lt;/p&gt;" style="text;html=1;strokeColor=none;fillColor=none;align=center;verticalAlign=middle;whiteSpace=wrap;rounded=0;" parent="1" vertex="1">
          <mxGeometry x="1241.5" y="817.13" width="40" height="17.5" as="geometry" />
        </mxCell>
        <mxCell id="_0Fipz_TGaaDiRLOD5LJ-278" value="&lt;p style=&quot;line-height: 90%; font-size: 8px;&quot;&gt;Date&lt;br&gt;&lt;/p&gt;" style="text;html=1;strokeColor=none;fillColor=none;align=center;verticalAlign=middle;whiteSpace=wrap;rounded=0;" parent="1" vertex="1">
          <mxGeometry x="1175" y="912.38" width="40" height="17.5" as="geometry" />
        </mxCell>
        <mxCell id="_0Fipz_TGaaDiRLOD5LJ-279" value="" style="ellipse;whiteSpace=wrap;html=1;aspect=fixed;" parent="1" vertex="1">
          <mxGeometry x="963.9100000000001" y="533.01" width="10" height="10" as="geometry" />
        </mxCell>
        <mxCell id="_0Fipz_TGaaDiRLOD5LJ-280" value="" style="endArrow=none;html=1;rounded=0;movable=1;resizable=1;rotatable=1;deletable=1;editable=1;locked=0;connectable=1;exitX=0.001;exitY=0.16;exitDx=0;exitDy=0;exitPerimeter=0;" parent="1" edge="1">
          <mxGeometry width="50" height="50" relative="1" as="geometry">
            <mxPoint x="984" y="537.92" as="sourcePoint" />
            <mxPoint x="973.9100000000001" y="537.92" as="targetPoint" />
          </mxGeometry>
        </mxCell>
        <mxCell id="_0Fipz_TGaaDiRLOD5LJ-284" value="&lt;p style=&quot;line-height: 90%; font-size: 8px;&quot;&gt;Phone Number&lt;/p&gt;" style="text;html=1;strokeColor=none;fillColor=none;align=center;verticalAlign=middle;whiteSpace=wrap;rounded=0;" parent="1" vertex="1">
          <mxGeometry x="926" y="529.26" width="40" height="17.5" as="geometry" />
        </mxCell>
        <mxCell id="_0Fipz_TGaaDiRLOD5LJ-285" value="" style="ellipse;whiteSpace=wrap;html=1;aspect=fixed;" parent="1" vertex="1">
          <mxGeometry x="963.9100000000001" y="565.26" width="10" height="10" as="geometry" />
        </mxCell>
        <mxCell id="_0Fipz_TGaaDiRLOD5LJ-286" value="" style="endArrow=none;html=1;rounded=0;movable=1;resizable=1;rotatable=1;deletable=1;editable=1;locked=0;connectable=1;exitX=0.001;exitY=0.16;exitDx=0;exitDy=0;exitPerimeter=0;" parent="1" edge="1">
          <mxGeometry width="50" height="50" relative="1" as="geometry">
            <mxPoint x="984" y="570.17" as="sourcePoint" />
            <mxPoint x="973.9100000000001" y="570.17" as="targetPoint" />
          </mxGeometry>
        </mxCell>
        <mxCell id="_0Fipz_TGaaDiRLOD5LJ-287" value="&lt;p style=&quot;line-height: 90%; font-size: 8px;&quot;&gt;E-mail&lt;/p&gt;" style="text;html=1;strokeColor=none;fillColor=none;align=center;verticalAlign=middle;whiteSpace=wrap;rounded=0;" parent="1" vertex="1">
          <mxGeometry x="926" y="561.51" width="40" height="17.5" as="geometry" />
        </mxCell>
        <mxCell id="_0Fipz_TGaaDiRLOD5LJ-288" value="" style="ellipse;whiteSpace=wrap;html=1;aspect=fixed;" parent="1" vertex="1">
          <mxGeometry x="1094.09" y="533" width="10" height="10" as="geometry" />
        </mxCell>
        <mxCell id="_0Fipz_TGaaDiRLOD5LJ-289" value="" style="endArrow=none;html=1;rounded=0;movable=1;resizable=1;rotatable=1;deletable=1;editable=1;locked=0;connectable=1;exitX=0.001;exitY=0.16;exitDx=0;exitDy=0;exitPerimeter=0;" parent="1" edge="1">
          <mxGeometry width="50" height="50" relative="1" as="geometry">
            <mxPoint x="1094.09" y="537.93" as="sourcePoint" />
            <mxPoint x="1084" y="537.93" as="targetPoint" />
          </mxGeometry>
        </mxCell>
        <mxCell id="_0Fipz_TGaaDiRLOD5LJ-290" value="&lt;p style=&quot;line-height: 90%; font-size: 8px;&quot;&gt;Name&lt;/p&gt;" style="text;html=1;strokeColor=none;fillColor=none;align=center;verticalAlign=middle;whiteSpace=wrap;rounded=0;" parent="1" vertex="1">
          <mxGeometry x="1097.5" y="529.26" width="40" height="17.5" as="geometry" />
        </mxCell>
        <mxCell id="_0Fipz_TGaaDiRLOD5LJ-291" value="" style="ellipse;whiteSpace=wrap;html=1;aspect=fixed;" parent="1" vertex="1">
          <mxGeometry x="1094.09" y="565.25" width="10" height="10" as="geometry" />
        </mxCell>
        <mxCell id="_0Fipz_TGaaDiRLOD5LJ-292" value="" style="endArrow=none;html=1;rounded=0;movable=1;resizable=1;rotatable=1;deletable=1;editable=1;locked=0;connectable=1;exitX=0.001;exitY=0.16;exitDx=0;exitDy=0;exitPerimeter=0;" parent="1" edge="1">
          <mxGeometry width="50" height="50" relative="1" as="geometry">
            <mxPoint x="1094.09" y="570.18" as="sourcePoint" />
            <mxPoint x="1084" y="570.18" as="targetPoint" />
          </mxGeometry>
        </mxCell>
        <mxCell id="_0Fipz_TGaaDiRLOD5LJ-293" value="&lt;p style=&quot;line-height: 90%; font-size: 8px;&quot;&gt;Surname&lt;/p&gt;" style="text;html=1;strokeColor=none;fillColor=none;align=center;verticalAlign=middle;whiteSpace=wrap;rounded=0;" parent="1" vertex="1">
          <mxGeometry x="1104" y="562.5" width="40" height="17.5" as="geometry" />
        </mxCell>
        <mxCell id="c8bZ2bwGE0sJ4KHw1Ml2-1" value="Location" style="whiteSpace=wrap;html=1;align=center;" parent="1" vertex="1">
          <mxGeometry x="1531" y="428" width="100" height="40" as="geometry" />
        </mxCell>
        <mxCell id="c8bZ2bwGE0sJ4KHw1Ml2-2" value="Stores" style="shape=rhombus;perimeter=rhombusPerimeter;whiteSpace=wrap;html=1;align=center;direction=west;" parent="1" vertex="1">
          <mxGeometry x="1521" y="524.13" width="120" height="60" as="geometry" />
        </mxCell>
        <mxCell id="c8bZ2bwGE0sJ4KHw1Ml2-6" value="" style="ellipse;whiteSpace=wrap;html=1;aspect=fixed;fillStyle=solid;fillColor=#000000;" parent="1" vertex="1">
          <mxGeometry x="1340.91" y="531.88" width="10" height="10" as="geometry" />
        </mxCell>
        <mxCell id="c8bZ2bwGE0sJ4KHw1Ml2-7" value="" style="endArrow=none;html=1;rounded=0;movable=1;resizable=1;rotatable=1;deletable=1;editable=1;locked=0;connectable=1;exitX=0.001;exitY=0.16;exitDx=0;exitDy=0;exitPerimeter=0;" parent="1" edge="1">
          <mxGeometry width="50" height="50" relative="1" as="geometry">
            <mxPoint x="1361" y="536.79" as="sourcePoint" />
            <mxPoint x="1350.91" y="536.79" as="targetPoint" />
          </mxGeometry>
        </mxCell>
        <mxCell id="c8bZ2bwGE0sJ4KHw1Ml2-8" value="&lt;p style=&quot;line-height: 90%; font-size: 8px;&quot;&gt;UIGID&lt;/p&gt;" style="text;html=1;strokeColor=none;fillColor=none;align=center;verticalAlign=middle;whiteSpace=wrap;rounded=0;" parent="1" vertex="1">
          <mxGeometry x="1305" y="528.13" width="40" height="17.5" as="geometry" />
        </mxCell>
        <mxCell id="c8bZ2bwGE0sJ4KHw1Ml2-10" value="" style="endArrow=none;html=1;rounded=0;exitX=0.5;exitY=1;exitDx=0;exitDy=0;entryX=0.5;entryY=1;entryDx=0;entryDy=0;" parent="1" source="c8bZ2bwGE0sJ4KHw1Ml2-2" target="c8bZ2bwGE0sJ4KHw1Ml2-1" edge="1">
          <mxGeometry relative="1" as="geometry">
            <mxPoint x="1641" y="485.29999999999995" as="sourcePoint" />
            <mxPoint x="1701" y="485.29999999999995" as="targetPoint" />
            <Array as="points" />
          </mxGeometry>
        </mxCell>
        <mxCell id="c8bZ2bwGE0sJ4KHw1Ml2-11" value="" style="ellipse;whiteSpace=wrap;html=1;aspect=fixed;" parent="1" vertex="1">
          <mxGeometry x="1534.5" y="406" width="10" height="10" as="geometry" />
        </mxCell>
        <mxCell id="c8bZ2bwGE0sJ4KHw1Ml2-12" value="" style="endArrow=none;html=1;rounded=0;exitX=0.05;exitY=0.006;exitDx=0;exitDy=0;exitPerimeter=0;" parent="1" edge="1">
          <mxGeometry width="50" height="50" relative="1" as="geometry">
            <mxPoint x="1539.5" y="428" as="sourcePoint" />
            <mxPoint x="1539.44" y="416" as="targetPoint" />
          </mxGeometry>
        </mxCell>
        <mxCell id="c8bZ2bwGE0sJ4KHw1Ml2-13" value="" style="ellipse;whiteSpace=wrap;html=1;aspect=fixed;" parent="1" vertex="1">
          <mxGeometry x="1577.5" y="406" width="10" height="10" as="geometry" />
        </mxCell>
        <mxCell id="c8bZ2bwGE0sJ4KHw1Ml2-14" value="" style="endArrow=none;html=1;rounded=0;exitX=0.05;exitY=0.006;exitDx=0;exitDy=0;exitPerimeter=0;" parent="1" edge="1">
          <mxGeometry width="50" height="50" relative="1" as="geometry">
            <mxPoint x="1582.5" y="428" as="sourcePoint" />
            <mxPoint x="1582.44" y="416" as="targetPoint" />
          </mxGeometry>
        </mxCell>
        <mxCell id="c8bZ2bwGE0sJ4KHw1Ml2-15" value="" style="ellipse;whiteSpace=wrap;html=1;aspect=fixed;fillStyle=solid;fillColor=#000000;" parent="1" vertex="1">
          <mxGeometry x="1619.5" y="406" width="10" height="10" as="geometry" />
        </mxCell>
        <mxCell id="c8bZ2bwGE0sJ4KHw1Ml2-16" value="" style="endArrow=none;html=1;rounded=0;exitX=0.05;exitY=0.006;exitDx=0;exitDy=0;exitPerimeter=0;" parent="1" edge="1">
          <mxGeometry width="50" height="50" relative="1" as="geometry">
            <mxPoint x="1624.5" y="428" as="sourcePoint" />
            <mxPoint x="1624.44" y="416" as="targetPoint" />
          </mxGeometry>
        </mxCell>
        <mxCell id="c8bZ2bwGE0sJ4KHw1Ml2-17" value="&lt;p style=&quot;line-height: 90%; font-size: 8px;&quot;&gt;Room&lt;/p&gt;" style="text;html=1;strokeColor=none;fillColor=none;align=center;verticalAlign=middle;whiteSpace=wrap;rounded=0;" parent="1" vertex="1">
          <mxGeometry x="1519.5" y="392.25" width="40" height="17.5" as="geometry" />
        </mxCell>
        <mxCell id="c8bZ2bwGE0sJ4KHw1Ml2-18" value="&lt;p style=&quot;line-height: 90%; font-size: 8px;&quot;&gt;Capacity&lt;/p&gt;" style="text;html=1;strokeColor=none;fillColor=none;align=center;verticalAlign=middle;whiteSpace=wrap;rounded=0;" parent="1" vertex="1">
          <mxGeometry x="1562.5" y="392.25" width="40" height="17.5" as="geometry" />
        </mxCell>
        <mxCell id="c8bZ2bwGE0sJ4KHw1Ml2-19" value="&lt;p style=&quot;line-height: 90%; font-size: 8px;&quot;&gt;&lt;span style=&quot;background-color: initial;&quot;&gt;Storage ID&lt;/span&gt;&lt;br&gt;&lt;/p&gt;" style="text;html=1;strokeColor=none;fillColor=none;align=center;verticalAlign=middle;whiteSpace=wrap;rounded=0;" parent="1" vertex="1">
          <mxGeometry x="1604.5" y="388.5" width="40" height="17.5" as="geometry" />
        </mxCell>
        <mxCell id="c8bZ2bwGE0sJ4KHw1Ml2-21" value="Group" style="whiteSpace=wrap;html=1;align=center;" parent="1" vertex="1">
          <mxGeometry x="1361.5" y="748.88" width="100" height="40" as="geometry" />
        </mxCell>
        <mxCell id="c8bZ2bwGE0sJ4KHw1Ml2-22" value="Belongs" style="shape=rhombus;perimeter=rhombusPerimeter;whiteSpace=wrap;html=1;align=center;direction=west;" parent="1" vertex="1">
          <mxGeometry x="1351" y="634.13" width="120" height="60" as="geometry" />
        </mxCell>
        <mxCell id="c8bZ2bwGE0sJ4KHw1Ml2-28" value="" style="ellipse;whiteSpace=wrap;html=1;aspect=fixed;fillStyle=solid;fillColor=#000000;" parent="1" vertex="1">
          <mxGeometry x="1471.0900000000001" y="752.13" width="10" height="10" as="geometry" />
        </mxCell>
        <mxCell id="c8bZ2bwGE0sJ4KHw1Ml2-32" value="&lt;p style=&quot;line-height: 90%; font-size: 8px;&quot;&gt;&lt;span style=&quot;background-color: initial;&quot;&gt;Study Group ID&lt;/span&gt;&lt;br&gt;&lt;/p&gt;" style="text;html=1;strokeColor=none;fillColor=none;align=center;verticalAlign=middle;whiteSpace=wrap;rounded=0;" parent="1" vertex="1">
          <mxGeometry x="1482.0900000000001" y="749.38" width="40" height="17.5" as="geometry" />
        </mxCell>
        <mxCell id="c8bZ2bwGE0sJ4KHw1Ml2-40" value="" style="ellipse;whiteSpace=wrap;html=1;aspect=fixed;" parent="1" vertex="1">
          <mxGeometry x="1340.91" y="548" width="10" height="10" as="geometry" />
        </mxCell>
        <mxCell id="c8bZ2bwGE0sJ4KHw1Ml2-41" value="" style="endArrow=none;html=1;rounded=0;movable=1;resizable=1;rotatable=1;deletable=1;editable=1;locked=0;connectable=1;exitX=0.001;exitY=0.16;exitDx=0;exitDy=0;exitPerimeter=0;" parent="1" edge="1">
          <mxGeometry width="50" height="50" relative="1" as="geometry">
            <mxPoint x="1361" y="552.94" as="sourcePoint" />
            <mxPoint x="1350.91" y="552.94" as="targetPoint" />
          </mxGeometry>
        </mxCell>
        <mxCell id="c8bZ2bwGE0sJ4KHw1Ml2-42" value="&lt;p style=&quot;line-height: 90%; font-size: 8px;&quot;&gt;Type&lt;/p&gt;" style="text;html=1;strokeColor=none;fillColor=none;align=center;verticalAlign=middle;whiteSpace=wrap;rounded=0;" parent="1" vertex="1">
          <mxGeometry x="1306.5" y="544.25" width="40" height="17.5" as="geometry" />
        </mxCell>
        <mxCell id="c8bZ2bwGE0sJ4KHw1Ml2-46" value="" style="endArrow=none;html=1;rounded=0;exitX=0.5;exitY=1;exitDx=0;exitDy=0;" parent="1" edge="1">
          <mxGeometry relative="1" as="geometry">
            <mxPoint x="1218.5" y="892.88" as="sourcePoint" />
            <mxPoint x="1219" y="947" as="targetPoint" />
            <Array as="points" />
          </mxGeometry>
        </mxCell>
        <mxCell id="c8bZ2bwGE0sJ4KHw1Ml2-62" value="Results" style="whiteSpace=wrap;html=1;align=center;" parent="1" vertex="1">
          <mxGeometry x="1361" y="956.63" width="100" height="40" as="geometry" />
        </mxCell>
        <mxCell id="c8bZ2bwGE0sJ4KHw1Ml2-63" value="" style="endArrow=none;html=1;rounded=0;exitX=0;exitY=0.5;exitDx=0;exitDy=0;entryX=0;entryY=0.5;entryDx=0;entryDy=0;" parent="1" source="-haGkilbFdXosV5tAH27-6" target="c8bZ2bwGE0sJ4KHw1Ml2-62" edge="1">
          <mxGeometry width="50" height="50" relative="1" as="geometry">
            <mxPoint x="1294" y="976.38" as="sourcePoint" />
            <mxPoint x="1354" y="976.38" as="targetPoint" />
          </mxGeometry>
        </mxCell>
        <mxCell id="TxClS1IGf8YN1uUrBQyQ-51" value="Research&lt;br&gt;Procedure" style="whiteSpace=wrap;html=1;align=center;" parent="1" vertex="1">
          <mxGeometry x="985" y="956.88" width="100" height="40" as="geometry" />
        </mxCell>
        <mxCell id="c8bZ2bwGE0sJ4KHw1Ml2-80" value="" style="endArrow=none;html=1;rounded=0;exitX=1;exitY=0.5;exitDx=0;exitDy=0;entryX=1;entryY=0.5;entryDx=0;entryDy=0;" parent="1" target="c8bZ2bwGE0sJ4KHw1Ml2-2" edge="1">
          <mxGeometry width="50" height="50" relative="1" as="geometry">
            <mxPoint x="1461.5" y="553.95" as="sourcePoint" />
            <mxPoint x="1521.5" y="553.95" as="targetPoint" />
          </mxGeometry>
        </mxCell>
        <mxCell id="c8bZ2bwGE0sJ4KHw1Ml2-82" value="" style="endArrow=none;html=1;rounded=0;movable=1;resizable=1;rotatable=1;deletable=1;editable=1;locked=0;connectable=1;exitX=0.001;exitY=0.16;exitDx=0;exitDy=0;exitPerimeter=0;" parent="1" edge="1">
          <mxGeometry width="50" height="50" relative="1" as="geometry">
            <mxPoint x="1471.0900000000001" y="757.06" as="sourcePoint" />
            <mxPoint x="1461" y="757.06" as="targetPoint" />
          </mxGeometry>
        </mxCell>
        <mxCell id="c8bZ2bwGE0sJ4KHw1Ml2-83" value="" style="endArrow=none;html=1;rounded=0;entryX=0.5;entryY=1;entryDx=0;entryDy=0;exitX=0.5;exitY=1;exitDx=0;exitDy=0;" parent="1" source="TxClS1IGf8YN1uUrBQyQ-44" target="c8bZ2bwGE0sJ4KHw1Ml2-22" edge="1">
          <mxGeometry relative="1" as="geometry">
            <mxPoint x="1416" y="483" as="sourcePoint" />
            <mxPoint x="1416" y="537" as="targetPoint" />
          </mxGeometry>
        </mxCell>
        <mxCell id="c8bZ2bwGE0sJ4KHw1Ml2-84" value="" style="endArrow=none;html=1;rounded=0;exitX=0.5;exitY=1;exitDx=0;exitDy=0;entryX=0.5;entryY=0;entryDx=0;entryDy=0;" parent="1" target="c8bZ2bwGE0sJ4KHw1Ml2-21" edge="1">
          <mxGeometry relative="1" as="geometry">
            <mxPoint x="1411.43" y="694.13" as="sourcePoint" />
            <mxPoint x="1411" y="747" as="targetPoint" />
          </mxGeometry>
        </mxCell>
        <mxCell id="c8bZ2bwGE0sJ4KHw1Ml2-85" value="" style="endArrow=none;html=1;rounded=0;exitX=0.5;exitY=1;exitDx=0;exitDy=0;entryX=0.5;entryY=1;entryDx=0;entryDy=0;" parent="1" source="-haGkilbFdXosV5tAH27-1" target="c8bZ2bwGE0sJ4KHw1Ml2-21" edge="1">
          <mxGeometry relative="1" as="geometry">
            <mxPoint x="1416.43" y="699.13" as="sourcePoint" />
            <mxPoint x="1417" y="754" as="targetPoint" />
          </mxGeometry>
        </mxCell>
        <mxCell id="c8bZ2bwGE0sJ4KHw1Ml2-90" value="" style="ellipse;whiteSpace=wrap;html=1;aspect=fixed;" parent="1" vertex="1">
          <mxGeometry x="1471.59" y="956.63" width="10" height="10" as="geometry" />
        </mxCell>
        <mxCell id="c8bZ2bwGE0sJ4KHw1Ml2-91" value="" style="endArrow=none;html=1;rounded=0;movable=1;resizable=1;rotatable=1;deletable=1;editable=1;locked=0;connectable=1;exitX=0.001;exitY=0.16;exitDx=0;exitDy=0;exitPerimeter=0;" parent="1" edge="1">
          <mxGeometry width="50" height="50" relative="1" as="geometry">
            <mxPoint x="1471.59" y="961.56" as="sourcePoint" />
            <mxPoint x="1461.5" y="961.56" as="targetPoint" />
          </mxGeometry>
        </mxCell>
        <mxCell id="c8bZ2bwGE0sJ4KHw1Ml2-92" value="&lt;p style=&quot;line-height: 90%; font-size: 8px;&quot;&gt;Mutation&lt;/p&gt;" style="text;html=1;strokeColor=none;fillColor=none;align=center;verticalAlign=middle;whiteSpace=wrap;rounded=0;" parent="1" vertex="1">
          <mxGeometry x="1480.5" y="952.88" width="40" height="17.5" as="geometry" />
        </mxCell>
        <mxCell id="c8bZ2bwGE0sJ4KHw1Ml2-93" value="" style="ellipse;whiteSpace=wrap;html=1;aspect=fixed;" parent="1" vertex="1">
          <mxGeometry x="1471.59" y="986.38" width="10" height="10" as="geometry" />
        </mxCell>
        <mxCell id="c8bZ2bwGE0sJ4KHw1Ml2-94" value="" style="endArrow=none;html=1;rounded=0;movable=1;resizable=1;rotatable=1;deletable=1;editable=1;locked=0;connectable=1;exitX=0.001;exitY=0.16;exitDx=0;exitDy=0;exitPerimeter=0;" parent="1" edge="1">
          <mxGeometry width="50" height="50" relative="1" as="geometry">
            <mxPoint x="1471.59" y="991.31" as="sourcePoint" />
            <mxPoint x="1461.5" y="991.31" as="targetPoint" />
          </mxGeometry>
        </mxCell>
        <mxCell id="c8bZ2bwGE0sJ4KHw1Ml2-95" value="&lt;p style=&quot;line-height: 90%; font-size: 8px;&quot;&gt;Putative copy-number alterations&lt;br&gt;&lt;/p&gt;" style="text;html=1;strokeColor=none;fillColor=none;align=center;verticalAlign=middle;whiteSpace=wrap;rounded=0;" parent="1" vertex="1">
          <mxGeometry x="1479.5" y="983.13" width="127.5" height="17.5" as="geometry" />
        </mxCell>
        <mxCell id="c8bZ2bwGE0sJ4KHw1Ml2-98" value="&lt;p style=&quot;line-height: 90%; font-size: 8px;&quot;&gt;Model Accuracy&lt;/p&gt;" style="text;html=1;strokeColor=none;fillColor=none;align=center;verticalAlign=middle;whiteSpace=wrap;rounded=0;" parent="1" vertex="1">
          <mxGeometry x="1426" y="1019.6300000000001" width="39.91" height="17.5" as="geometry" />
        </mxCell>
        <mxCell id="yA3WIeuCUDbB8ZDYc9Yh-10" value="Consent" style="whiteSpace=wrap;html=1;align=center;" parent="1" vertex="1">
          <mxGeometry x="984.9999999999998" y="338.63" width="100" height="40" as="geometry" />
        </mxCell>
        <mxCell id="yA3WIeuCUDbB8ZDYc9Yh-21" value="Gives" style="shape=rhombus;perimeter=rhombusPerimeter;whiteSpace=wrap;html=1;align=center;direction=west;" parent="1" vertex="1">
          <mxGeometry x="1160.55" y="418" width="120" height="60" as="geometry" />
        </mxCell>
        <mxCell id="yA3WIeuCUDbB8ZDYc9Yh-30" value="" style="ellipse;whiteSpace=wrap;html=1;aspect=fixed;fillStyle=solid;fillColor=none;" parent="1" vertex="1">
          <mxGeometry x="1190" y="904.88" width="10" height="10" as="geometry" />
        </mxCell>
        <mxCell id="yA3WIeuCUDbB8ZDYc9Yh-31" value="" style="endArrow=none;html=1;rounded=0;exitX=0.05;exitY=0.006;exitDx=0;exitDy=0;exitPerimeter=0;" parent="1" edge="1">
          <mxGeometry width="50" height="50" relative="1" as="geometry">
            <mxPoint x="1195" y="904.88" as="sourcePoint" />
            <mxPoint x="1194.94" y="892.88" as="targetPoint" />
          </mxGeometry>
        </mxCell>
        <mxCell id="yA3WIeuCUDbB8ZDYc9Yh-37" value="&lt;font style=&quot;font-size: 8px;&quot;&gt;(0,N)&lt;/font&gt;" style="text;html=1;strokeColor=none;fillColor=none;align=center;verticalAlign=middle;whiteSpace=wrap;rounded=0;" parent="1" vertex="1">
          <mxGeometry x="1219.96" y="398" width="35" height="20" as="geometry" />
        </mxCell>
        <mxCell id="yA3WIeuCUDbB8ZDYc9Yh-41" value="&lt;font style=&quot;font-size: 8px;&quot;&gt;(0,1)&lt;/font&gt;" style="text;html=1;strokeColor=none;fillColor=none;align=center;verticalAlign=middle;whiteSpace=wrap;rounded=0;" parent="1" vertex="1">
          <mxGeometry x="1413" y="176.75" width="35" height="20" as="geometry" />
        </mxCell>
        <mxCell id="yA3WIeuCUDbB8ZDYc9Yh-42" value="&lt;font style=&quot;font-size: 8px;&quot;&gt;(1,N)&lt;/font&gt;" style="text;html=1;strokeColor=none;fillColor=none;align=center;verticalAlign=middle;whiteSpace=wrap;rounded=0;" parent="1" vertex="1">
          <mxGeometry x="1307.5" y="207" width="35" height="20" as="geometry" />
        </mxCell>
        <mxCell id="yA3WIeuCUDbB8ZDYc9Yh-43" value="&lt;font style=&quot;font-size: 8px;&quot;&gt;(1,1)&lt;/font&gt;" style="text;html=1;strokeColor=none;fillColor=none;align=center;verticalAlign=middle;whiteSpace=wrap;rounded=0;" parent="1" vertex="1">
          <mxGeometry x="1413" y="258" width="35" height="20" as="geometry" />
        </mxCell>
        <mxCell id="yA3WIeuCUDbB8ZDYc9Yh-44" value="&lt;font style=&quot;font-size: 8px;&quot;&gt;(0,N)&lt;/font&gt;" style="text;html=1;strokeColor=none;fillColor=none;align=center;verticalAlign=middle;whiteSpace=wrap;rounded=0;" parent="1" vertex="1">
          <mxGeometry x="1413" y="396" width="35" height="20" as="geometry" />
        </mxCell>
        <mxCell id="yA3WIeuCUDbB8ZDYc9Yh-45" value="&lt;font style=&quot;font-size: 8px;&quot;&gt;(1,1)&lt;/font&gt;" style="text;html=1;strokeColor=none;fillColor=none;align=center;verticalAlign=middle;whiteSpace=wrap;rounded=0;" parent="1" vertex="1">
          <mxGeometry x="1413" y="478" width="35" height="20" as="geometry" />
        </mxCell>
        <mxCell id="yA3WIeuCUDbB8ZDYc9Yh-46" value="&lt;font style=&quot;font-size: 8px;&quot;&gt;(1,1)&lt;/font&gt;" style="text;html=1;strokeColor=none;fillColor=none;align=center;verticalAlign=middle;whiteSpace=wrap;rounded=0;" parent="1" vertex="1">
          <mxGeometry x="1486" y="533.01" width="35" height="20" as="geometry" />
        </mxCell>
        <mxCell id="yA3WIeuCUDbB8ZDYc9Yh-47" value="&lt;font style=&quot;font-size: 8px;&quot;&gt;(0,N)&lt;/font&gt;" style="text;html=1;strokeColor=none;fillColor=none;align=center;verticalAlign=middle;whiteSpace=wrap;rounded=0;" parent="1" vertex="1">
          <mxGeometry x="1583" y="504.13" width="35" height="20" as="geometry" />
        </mxCell>
        <mxCell id="yA3WIeuCUDbB8ZDYc9Yh-48" value="&lt;font style=&quot;font-size: 8px;&quot;&gt;(1,N)&lt;/font&gt;" style="text;html=1;strokeColor=none;fillColor=none;align=center;verticalAlign=middle;whiteSpace=wrap;rounded=0;" parent="1" vertex="1">
          <mxGeometry x="1413" y="614.13" width="35" height="20" as="geometry" />
        </mxCell>
        <mxCell id="yA3WIeuCUDbB8ZDYc9Yh-49" value="&lt;font style=&quot;font-size: 8px;&quot;&gt;(1,N)&lt;/font&gt;" style="text;html=1;strokeColor=none;fillColor=none;align=center;verticalAlign=middle;whiteSpace=wrap;rounded=0;" parent="1" vertex="1">
          <mxGeometry x="1413" y="697" width="35" height="20" as="geometry" />
        </mxCell>
        <mxCell id="yA3WIeuCUDbB8ZDYc9Yh-50" value="&lt;font style=&quot;font-size: 8px;&quot;&gt;(1,N)&lt;/font&gt;" style="text;html=1;strokeColor=none;fillColor=none;align=center;verticalAlign=middle;whiteSpace=wrap;rounded=0;" parent="1" vertex="1">
          <mxGeometry x="1413" y="820.88" width="35" height="20" as="geometry" />
        </mxCell>
        <mxCell id="yA3WIeuCUDbB8ZDYc9Yh-51" value="&lt;font style=&quot;font-size: 8px;&quot;&gt;(0,N)&lt;/font&gt;" style="text;html=1;strokeColor=none;fillColor=none;align=center;verticalAlign=middle;whiteSpace=wrap;rounded=0;" parent="1" vertex="1">
          <mxGeometry x="1314.5" y="852.88" width="35" height="20" as="geometry" />
        </mxCell>
        <mxCell id="yA3WIeuCUDbB8ZDYc9Yh-52" value="&lt;font style=&quot;font-size: 8px;&quot;&gt;(1,N)&lt;/font&gt;" style="text;html=1;strokeColor=none;fillColor=none;align=center;verticalAlign=middle;whiteSpace=wrap;rounded=0;" parent="1" vertex="1">
          <mxGeometry x="1094" y="852.88" width="35" height="20" as="geometry" />
        </mxCell>
        <mxCell id="yA3WIeuCUDbB8ZDYc9Yh-53" value="&lt;font style=&quot;font-size: 8px;&quot;&gt;(1,N)&lt;/font&gt;" style="text;html=1;strokeColor=none;fillColor=none;align=center;verticalAlign=middle;whiteSpace=wrap;rounded=0;" parent="1" vertex="1">
          <mxGeometry x="1034.46" y="822.88" width="35" height="20" as="geometry" />
        </mxCell>
        <mxCell id="yA3WIeuCUDbB8ZDYc9Yh-54" value="&lt;font style=&quot;font-size: 8px;&quot;&gt;(1,N)&lt;/font&gt;" style="text;html=1;strokeColor=none;fillColor=none;align=center;verticalAlign=middle;whiteSpace=wrap;rounded=0;" parent="1" vertex="1">
          <mxGeometry x="1034.46" y="694.13" width="35" height="20" as="geometry" />
        </mxCell>
        <mxCell id="yA3WIeuCUDbB8ZDYc9Yh-55" value="&lt;font style=&quot;font-size: 8px;&quot;&gt;(0,N)&lt;/font&gt;" style="text;html=1;strokeColor=none;fillColor=none;align=center;verticalAlign=middle;whiteSpace=wrap;rounded=0;" parent="1" vertex="1">
          <mxGeometry x="1034.46" y="614.13" width="35" height="20" as="geometry" />
        </mxCell>
        <mxCell id="yA3WIeuCUDbB8ZDYc9Yh-62" value="&lt;font style=&quot;font-size: 8px;&quot;&gt;(1,1)&lt;/font&gt;" style="text;html=1;strokeColor=none;fillColor=none;align=center;verticalAlign=middle;whiteSpace=wrap;rounded=0;" parent="1" vertex="1">
          <mxGeometry x="1218.37" y="926.88" width="35" height="20" as="geometry" />
        </mxCell>
        <mxCell id="yA3WIeuCUDbB8ZDYc9Yh-63" value="&lt;font style=&quot;font-size: 8px;&quot;&gt;(1,1)&lt;/font&gt;" style="text;html=1;strokeColor=none;fillColor=none;align=center;verticalAlign=middle;whiteSpace=wrap;rounded=0;" parent="1" vertex="1">
          <mxGeometry x="1279" y="956.88" width="35" height="20" as="geometry" />
        </mxCell>
        <mxCell id="ueLFQBLsjJCRZ9gE-VuC-3" value="" style="ellipse;whiteSpace=wrap;html=1;aspect=fixed;" parent="1" vertex="1">
          <mxGeometry x="1472.09" y="316.88" width="10" height="10" as="geometry" />
        </mxCell>
        <mxCell id="ueLFQBLsjJCRZ9gE-VuC-4" value="" style="endArrow=none;html=1;rounded=0;movable=1;resizable=1;rotatable=1;deletable=1;editable=1;locked=0;connectable=1;exitX=0.001;exitY=0.16;exitDx=0;exitDy=0;exitPerimeter=0;" parent="1" edge="1">
          <mxGeometry width="50" height="50" relative="1" as="geometry">
            <mxPoint x="1472.09" y="321.80999999999995" as="sourcePoint" />
            <mxPoint x="1462" y="321.80999999999995" as="targetPoint" />
          </mxGeometry>
        </mxCell>
        <mxCell id="ueLFQBLsjJCRZ9gE-VuC-5" value="" style="ellipse;whiteSpace=wrap;html=1;aspect=fixed;fillStyle=solid;fillColor=#000000;" parent="1" vertex="1">
          <mxGeometry x="1472.09" y="349.13" width="10" height="10" as="geometry" />
        </mxCell>
        <mxCell id="ueLFQBLsjJCRZ9gE-VuC-6" value="" style="endArrow=none;html=1;rounded=0;movable=1;resizable=1;rotatable=1;deletable=1;editable=1;locked=0;connectable=1;exitX=0.001;exitY=0.16;exitDx=0;exitDy=0;exitPerimeter=0;" parent="1" edge="1">
          <mxGeometry width="50" height="50" relative="1" as="geometry">
            <mxPoint x="1472.09" y="354.05999999999995" as="sourcePoint" />
            <mxPoint x="1462" y="354.05999999999995" as="targetPoint" />
          </mxGeometry>
        </mxCell>
        <mxCell id="ueLFQBLsjJCRZ9gE-VuC-10" value="" style="ellipse;whiteSpace=wrap;html=1;aspect=fixed;" parent="1" vertex="1">
          <mxGeometry x="1171.5500000000002" y="255.5" width="10" height="10" as="geometry" />
        </mxCell>
        <mxCell id="ueLFQBLsjJCRZ9gE-VuC-11" value="" style="endArrow=none;html=1;rounded=0;exitX=0.05;exitY=0.006;exitDx=0;exitDy=0;exitPerimeter=0;" parent="1" edge="1">
          <mxGeometry width="50" height="50" relative="1" as="geometry">
            <mxPoint x="1176.5500000000002" y="277.5" as="sourcePoint" />
            <mxPoint x="1176.4900000000002" y="265.5" as="targetPoint" />
          </mxGeometry>
        </mxCell>
        <mxCell id="ueLFQBLsjJCRZ9gE-VuC-14" value="" style="ellipse;whiteSpace=wrap;html=1;aspect=fixed;fillStyle=solid;fillColor=#000000;" parent="1" vertex="1">
          <mxGeometry x="1256.5500000000002" y="255.5" width="10" height="10" as="geometry" />
        </mxCell>
        <mxCell id="ueLFQBLsjJCRZ9gE-VuC-15" value="" style="endArrow=none;html=1;rounded=0;exitX=0.05;exitY=0.006;exitDx=0;exitDy=0;exitPerimeter=0;" parent="1" edge="1">
          <mxGeometry width="50" height="50" relative="1" as="geometry">
            <mxPoint x="1261.5500000000002" y="277.5" as="sourcePoint" />
            <mxPoint x="1261.4900000000002" y="265.5" as="targetPoint" />
          </mxGeometry>
        </mxCell>
        <mxCell id="ueLFQBLsjJCRZ9gE-VuC-16" value="&lt;p style=&quot;line-height: 50%;&quot;&gt;&lt;font style=&quot;font-size: 8px;&quot;&gt;Fiscal&lt;br&gt;Code&lt;br&gt;&lt;/font&gt;&lt;/p&gt;" style="text;html=1;align=center;verticalAlign=middle;resizable=0;points=[];autosize=1;strokeColor=none;fillColor=none;" parent="1" vertex="1">
          <mxGeometry x="1166.59" y="321.13" width="40" height="55" as="geometry" />
        </mxCell>
        <mxCell id="ueLFQBLsjJCRZ9gE-VuC-17" value="" style="ellipse;whiteSpace=wrap;html=1;aspect=fixed;" parent="1" vertex="1">
          <mxGeometry x="1279.64" y="277.5" width="10" height="10" as="geometry" />
        </mxCell>
        <mxCell id="ueLFQBLsjJCRZ9gE-VuC-18" value="" style="endArrow=none;html=1;rounded=0;movable=1;resizable=1;rotatable=1;deletable=1;editable=1;locked=0;connectable=1;exitX=0.001;exitY=0.16;exitDx=0;exitDy=0;exitPerimeter=0;" parent="1" edge="1">
          <mxGeometry width="50" height="50" relative="1" as="geometry">
            <mxPoint x="1279.64" y="282.44" as="sourcePoint" />
            <mxPoint x="1269.5500000000002" y="282.44" as="targetPoint" />
          </mxGeometry>
        </mxCell>
        <mxCell id="ueLFQBLsjJCRZ9gE-VuC-19" value="&lt;p style=&quot;line-height: 90%; font-size: 8px;&quot;&gt;Status&lt;/p&gt;" style="text;html=1;strokeColor=none;fillColor=none;align=center;verticalAlign=middle;whiteSpace=wrap;rounded=0;" parent="1" vertex="1">
          <mxGeometry x="1112.96" y="303.25" width="40" height="17.5" as="geometry" />
        </mxCell>
        <mxCell id="ueLFQBLsjJCRZ9gE-VuC-20" value="&lt;p style=&quot;line-height: 90%; font-size: 8px;&quot;&gt;Sex&lt;/p&gt;" style="text;html=1;strokeColor=none;fillColor=none;align=center;verticalAlign=middle;whiteSpace=wrap;rounded=0;" parent="1" vertex="1">
          <mxGeometry x="1280.0900000000001" y="305.13" width="40" height="17.5" as="geometry" />
        </mxCell>
        <mxCell id="ueLFQBLsjJCRZ9gE-VuC-21" value="&lt;p style=&quot;line-height: 90%; font-size: 8px;&quot;&gt;Name&lt;/p&gt;" style="text;html=1;strokeColor=none;fillColor=none;align=center;verticalAlign=middle;whiteSpace=wrap;rounded=0;" parent="1" vertex="1">
          <mxGeometry x="1283.64" y="273.75" width="40" height="17.5" as="geometry" />
        </mxCell>
        <mxCell id="ueLFQBLsjJCRZ9gE-VuC-22" value="&lt;p style=&quot;line-height: 90%; font-size: 8px;&quot;&gt;Surname&lt;/p&gt;" style="text;html=1;strokeColor=none;fillColor=none;align=center;verticalAlign=middle;whiteSpace=wrap;rounded=0;" parent="1" vertex="1">
          <mxGeometry x="1288.5900000000001" y="290" width="40" height="17.5" as="geometry" />
        </mxCell>
        <mxCell id="ueLFQBLsjJCRZ9gE-VuC-23" value="" style="ellipse;whiteSpace=wrap;html=1;aspect=fixed;" parent="1" vertex="1">
          <mxGeometry x="1279.64" y="307.25" width="10" height="10" as="geometry" />
        </mxCell>
        <mxCell id="ueLFQBLsjJCRZ9gE-VuC-24" value="" style="endArrow=none;html=1;rounded=0;movable=1;resizable=1;rotatable=1;deletable=1;editable=1;locked=0;connectable=1;exitX=0.001;exitY=0.16;exitDx=0;exitDy=0;exitPerimeter=0;" parent="1" edge="1">
          <mxGeometry width="50" height="50" relative="1" as="geometry">
            <mxPoint x="1279.64" y="312.19" as="sourcePoint" />
            <mxPoint x="1269.5500000000002" y="312.19" as="targetPoint" />
          </mxGeometry>
        </mxCell>
        <mxCell id="ueLFQBLsjJCRZ9gE-VuC-25" value="" style="ellipse;whiteSpace=wrap;html=1;aspect=fixed;fillStyle=solid;fillColor=none;" parent="1" vertex="1">
          <mxGeometry x="1148.9600000000003" y="307.75" width="10" height="10" as="geometry" />
        </mxCell>
        <mxCell id="ueLFQBLsjJCRZ9gE-VuC-26" value="" style="endArrow=none;html=1;rounded=0;movable=1;resizable=1;rotatable=1;deletable=1;editable=1;locked=0;connectable=1;exitX=0.001;exitY=0.16;exitDx=0;exitDy=0;exitPerimeter=0;" parent="1" edge="1">
          <mxGeometry width="50" height="50" relative="1" as="geometry">
            <mxPoint x="1169.0500000000002" y="312.65999999999997" as="sourcePoint" />
            <mxPoint x="1158.9600000000003" y="312.65999999999997" as="targetPoint" />
          </mxGeometry>
        </mxCell>
        <mxCell id="ueLFQBLsjJCRZ9gE-VuC-27" value="&lt;p style=&quot;line-height: 90%; font-size: 8px;&quot;&gt;Date of Birth&lt;br&gt;&lt;/p&gt;" style="text;html=1;strokeColor=none;fillColor=none;align=center;verticalAlign=middle;whiteSpace=wrap;rounded=0;" parent="1" vertex="1">
          <mxGeometry x="1157.09" y="238.38" width="40" height="17.5" as="geometry" />
        </mxCell>
        <mxCell id="ueLFQBLsjJCRZ9gE-VuC-28" value="" style="ellipse;whiteSpace=wrap;html=1;aspect=fixed;fillStyle=solid;fillColor=none;" parent="1" vertex="1">
          <mxGeometry x="1149.4600000000003" y="275.5" width="10" height="10" as="geometry" />
        </mxCell>
        <mxCell id="ueLFQBLsjJCRZ9gE-VuC-29" value="" style="endArrow=none;html=1;rounded=0;movable=1;resizable=1;rotatable=1;deletable=1;editable=1;locked=0;connectable=1;exitX=0.001;exitY=0.16;exitDx=0;exitDy=0;exitPerimeter=0;" parent="1" edge="1">
          <mxGeometry width="50" height="50" relative="1" as="geometry">
            <mxPoint x="1169.5500000000002" y="280.40999999999997" as="sourcePoint" />
            <mxPoint x="1159.4600000000003" y="280.40999999999997" as="targetPoint" />
          </mxGeometry>
        </mxCell>
        <mxCell id="ueLFQBLsjJCRZ9gE-VuC-30" value="&lt;p style=&quot;line-height: 90%; font-size: 8px;&quot;&gt;Height&lt;/p&gt;" style="text;html=1;strokeColor=none;fillColor=none;align=center;verticalAlign=middle;whiteSpace=wrap;rounded=0;" parent="1" vertex="1">
          <mxGeometry x="1112.96" y="273" width="40" height="17.5" as="geometry" />
        </mxCell>
        <mxCell id="ueLFQBLsjJCRZ9gE-VuC-31" value="&lt;p style=&quot;line-height: 90%; font-size: 8px;&quot;&gt;Weight&lt;/p&gt;" style="text;html=1;strokeColor=none;fillColor=none;align=center;verticalAlign=middle;whiteSpace=wrap;rounded=0;" parent="1" vertex="1">
          <mxGeometry x="1112.96" y="287" width="40" height="17.5" as="geometry" />
        </mxCell>
        <mxCell id="ueLFQBLsjJCRZ9gE-VuC-32" value="" style="ellipse;whiteSpace=wrap;html=1;aspect=fixed;fillStyle=solid;fillColor=none;" parent="1" vertex="1">
          <mxGeometry x="1242.18" y="328.25" width="10" height="10" as="geometry" />
        </mxCell>
        <mxCell id="ueLFQBLsjJCRZ9gE-VuC-33" value="" style="endArrow=none;html=1;rounded=0;exitX=0.05;exitY=0.006;exitDx=0;exitDy=0;exitPerimeter=0;" parent="1" edge="1">
          <mxGeometry width="50" height="50" relative="1" as="geometry">
            <mxPoint x="1247.18" y="328.25" as="sourcePoint" />
            <mxPoint x="1247.1200000000001" y="316.25" as="targetPoint" />
          </mxGeometry>
        </mxCell>
        <mxCell id="ueLFQBLsjJCRZ9gE-VuC-36" value="&lt;p style=&quot;line-height: 90%; font-size: 8px;&quot;&gt;&lt;font style=&quot;font-size: 8px;&quot;&gt;Clinical&lt;br&gt;&lt;/font&gt;&lt;font style=&quot;font-size: 8px;&quot;&gt;History&lt;/font&gt;&lt;/p&gt;" style="text;html=1;strokeColor=none;fillColor=none;align=center;verticalAlign=middle;whiteSpace=wrap;rounded=0;" parent="1" vertex="1">
          <mxGeometry x="1217.18" y="333.75" width="60" height="30" as="geometry" />
        </mxCell>
        <mxCell id="ueLFQBLsjJCRZ9gE-VuC-37" value="&lt;font style=&quot;font-size: 8px;&quot;&gt;(1,1)&lt;/font&gt;" style="text;html=1;strokeColor=none;fillColor=none;align=center;verticalAlign=middle;whiteSpace=wrap;rounded=0;" parent="1" vertex="1">
          <mxGeometry x="1129" y="428" width="35" height="20" as="geometry" />
        </mxCell>
        <mxCell id="ueLFQBLsjJCRZ9gE-VuC-40" value="" style="endArrow=none;html=1;rounded=0;exitX=0;exitY=0.5;exitDx=0;exitDy=0;entryX=0;entryY=0.5;entryDx=0;entryDy=0;" parent="1" source="_0Fipz_TGaaDiRLOD5LJ-252" target="TxClS1IGf8YN1uUrBQyQ-47" edge="1">
          <mxGeometry width="50" height="50" relative="1" as="geometry">
            <mxPoint x="1087.5" y="872.88" as="sourcePoint" />
            <mxPoint x="1169.5" y="872.88" as="targetPoint" />
          </mxGeometry>
        </mxCell>
        <mxCell id="ueLFQBLsjJCRZ9gE-VuC-42" value="Patient" style="whiteSpace=wrap;html=1;align=center;direction=west;" parent="1" vertex="1">
          <mxGeometry x="1169.5900000000001" y="276.63" width="100" height="40" as="geometry" />
        </mxCell>
        <mxCell id="ueLFQBLsjJCRZ9gE-VuC-44" value="" style="endArrow=none;html=1;rounded=0;movable=1;resizable=1;rotatable=1;deletable=1;editable=1;locked=0;connectable=1;exitX=0.001;exitY=0.16;exitDx=0;exitDy=0;exitPerimeter=0;" parent="1" edge="1">
          <mxGeometry width="50" height="50" relative="1" as="geometry">
            <mxPoint x="1095.0900000000001" y="358.49" as="sourcePoint" />
            <mxPoint x="1085.0000000000002" y="358.49" as="targetPoint" />
          </mxGeometry>
        </mxCell>
        <mxCell id="ueLFQBLsjJCRZ9gE-VuC-45" value="&lt;p style=&quot;line-height: 90%; font-size: 8px;&quot;&gt;Consent Status&lt;/p&gt;" style="text;html=1;strokeColor=none;fillColor=none;align=center;verticalAlign=middle;whiteSpace=wrap;rounded=0;" parent="1" vertex="1">
          <mxGeometry x="1103" y="350.88" width="40" height="17.5" as="geometry" />
        </mxCell>
        <mxCell id="ueLFQBLsjJCRZ9gE-VuC-46" value="" style="ellipse;whiteSpace=wrap;html=1;aspect=fixed;fillStyle=solid;fillColor=none;" parent="1" vertex="1">
          <mxGeometry x="1148.9600000000003" y="291.5" width="10" height="10" as="geometry" />
        </mxCell>
        <mxCell id="ueLFQBLsjJCRZ9gE-VuC-47" value="" style="endArrow=none;html=1;rounded=0;movable=1;resizable=1;rotatable=1;deletable=1;editable=1;locked=0;connectable=1;exitX=0.001;exitY=0.16;exitDx=0;exitDy=0;exitPerimeter=0;" parent="1" edge="1">
          <mxGeometry width="50" height="50" relative="1" as="geometry">
            <mxPoint x="1169.0500000000002" y="296.40999999999997" as="sourcePoint" />
            <mxPoint x="1158.9600000000003" y="296.40999999999997" as="targetPoint" />
          </mxGeometry>
        </mxCell>
        <mxCell id="ueLFQBLsjJCRZ9gE-VuC-50" value="" style="ellipse;whiteSpace=wrap;html=1;aspect=fixed;" parent="1" vertex="1">
          <mxGeometry x="1279.68" y="292.5" width="10" height="10" as="geometry" />
        </mxCell>
        <mxCell id="ueLFQBLsjJCRZ9gE-VuC-51" value="" style="endArrow=none;html=1;rounded=0;movable=1;resizable=1;rotatable=1;deletable=1;editable=1;locked=0;connectable=1;exitX=0.001;exitY=0.16;exitDx=0;exitDy=0;exitPerimeter=0;" parent="1" edge="1">
          <mxGeometry width="50" height="50" relative="1" as="geometry">
            <mxPoint x="1279.68" y="297.44" as="sourcePoint" />
            <mxPoint x="1269.5900000000001" y="297.44" as="targetPoint" />
          </mxGeometry>
        </mxCell>
        <mxCell id="ueLFQBLsjJCRZ9gE-VuC-52" value="" style="endArrow=none;html=1;rounded=0;entryX=0;entryY=0.5;entryDx=0;entryDy=0;exitX=0.5;exitY=1;exitDx=0;exitDy=0;" parent="1" source="ueLFQBLsjJCRZ9gE-VuC-42" edge="1">
          <mxGeometry width="50" height="50" relative="1" as="geometry">
            <mxPoint x="1260" y="307" as="sourcePoint" />
            <mxPoint x="1352.5" y="228" as="targetPoint" />
            <Array as="points">
              <mxPoint x="1219" y="228" />
            </Array>
          </mxGeometry>
        </mxCell>
        <mxCell id="ueLFQBLsjJCRZ9gE-VuC-53" value="" style="endArrow=none;html=1;rounded=0;entryX=0.5;entryY=0;entryDx=0;entryDy=0;exitX=0.5;exitY=1;exitDx=0;exitDy=0;" parent="1" source="yA3WIeuCUDbB8ZDYc9Yh-21" target="ueLFQBLsjJCRZ9gE-VuC-42" edge="1">
          <mxGeometry width="50" height="50" relative="1" as="geometry">
            <mxPoint x="1233" y="387" as="sourcePoint" />
            <mxPoint x="1283" y="337" as="targetPoint" />
          </mxGeometry>
        </mxCell>
        <mxCell id="ueLFQBLsjJCRZ9gE-VuC-56" value="" style="endArrow=none;html=1;rounded=0;exitX=0.5;exitY=0;exitDx=0;exitDy=0;entryX=0.5;entryY=0;entryDx=0;entryDy=0;" parent="1" source="TxClS1IGf8YN1uUrBQyQ-47" target="yA3WIeuCUDbB8ZDYc9Yh-21" edge="1">
          <mxGeometry width="50" height="50" relative="1" as="geometry">
            <mxPoint x="1244" y="817" as="sourcePoint" />
            <mxPoint x="1218.37" y="782" as="targetPoint" />
          </mxGeometry>
        </mxCell>
        <mxCell id="ueLFQBLsjJCRZ9gE-VuC-58" value="&lt;font style=&quot;font-size: 8px;&quot;&gt;(1,N)&lt;/font&gt;" style="text;html=1;strokeColor=none;fillColor=none;align=center;verticalAlign=middle;whiteSpace=wrap;rounded=0;" parent="1" vertex="1">
          <mxGeometry x="1219.96" y="478" width="35" height="20" as="geometry" />
        </mxCell>
        <mxCell id="XkU2QEyPw8NFJmjaPF2G-1" value="" style="ellipse;whiteSpace=wrap;html=1;aspect=fixed;fillStyle=solid;fillColor=none;" parent="1" vertex="1">
          <mxGeometry x="1510.66" y="431.75" width="10" height="10" as="geometry" />
        </mxCell>
        <mxCell id="XkU2QEyPw8NFJmjaPF2G-2" value="" style="endArrow=none;html=1;rounded=0;movable=1;resizable=1;rotatable=1;deletable=1;editable=1;locked=0;connectable=1;exitX=0.001;exitY=0.16;exitDx=0;exitDy=0;exitPerimeter=0;" parent="1" edge="1">
          <mxGeometry width="50" height="50" relative="1" as="geometry">
            <mxPoint x="1530.75" y="436.65999999999997" as="sourcePoint" />
            <mxPoint x="1520.66" y="436.65999999999997" as="targetPoint" />
          </mxGeometry>
        </mxCell>
        <mxCell id="XkU2QEyPw8NFJmjaPF2G-3" value="&lt;p style=&quot;line-height: 90%; font-size: 8px;&quot;&gt;Kind&lt;/p&gt;" style="text;html=1;strokeColor=none;fillColor=none;align=center;verticalAlign=middle;whiteSpace=wrap;rounded=0;" parent="1" vertex="1">
          <mxGeometry x="1480.25" y="428" width="40" height="17.5" as="geometry" />
        </mxCell>
        <mxCell id="XkU2QEyPw8NFJmjaPF2G-4" value="&lt;p style=&quot;line-height: 90%; font-size: 8px;&quot;&gt;Kind of Samples&lt;/p&gt;" style="text;html=1;strokeColor=none;fillColor=none;align=center;verticalAlign=middle;whiteSpace=wrap;rounded=0;" parent="1" vertex="1">
          <mxGeometry x="1482.91" y="773" width="40" height="17.5" as="geometry" />
        </mxCell>
        <mxCell id="XkU2QEyPw8NFJmjaPF2G-5" value="" style="ellipse;whiteSpace=wrap;html=1;aspect=fixed;" parent="1" vertex="1">
          <mxGeometry x="1472" y="776.63" width="10" height="10" as="geometry" />
        </mxCell>
        <mxCell id="XkU2QEyPw8NFJmjaPF2G-6" value="" style="endArrow=none;html=1;rounded=0;movable=1;resizable=1;rotatable=1;deletable=1;editable=1;locked=0;connectable=1;exitX=0.001;exitY=0.16;exitDx=0;exitDy=0;exitPerimeter=0;" parent="1" edge="1">
          <mxGeometry width="50" height="50" relative="1" as="geometry">
            <mxPoint x="1472" y="781.56" as="sourcePoint" />
            <mxPoint x="1461.91" y="781.56" as="targetPoint" />
          </mxGeometry>
        </mxCell>
        <mxCell id="XkU2QEyPw8NFJmjaPF2G-9" value="&lt;p style=&quot;line-height: 90%; font-size: 8px;&quot;&gt;Description&lt;/p&gt;" style="text;html=1;strokeColor=none;fillColor=none;align=center;verticalAlign=middle;whiteSpace=wrap;rounded=0;" parent="1" vertex="1">
          <mxGeometry x="978" y="1016.88" width="40" height="17.5" as="geometry" />
        </mxCell>
        <mxCell id="XkU2QEyPw8NFJmjaPF2G-12" value="" style="ellipse;whiteSpace=wrap;html=1;aspect=fixed;fillStyle=solid;fillColor=none;" parent="1" vertex="1">
          <mxGeometry x="992" y="1008.63" width="10" height="10" as="geometry" />
        </mxCell>
        <mxCell id="XkU2QEyPw8NFJmjaPF2G-13" value="" style="endArrow=none;html=1;rounded=0;exitX=0.05;exitY=0.006;exitDx=0;exitDy=0;exitPerimeter=0;" parent="1" edge="1">
          <mxGeometry width="50" height="50" relative="1" as="geometry">
            <mxPoint x="997" y="1008.63" as="sourcePoint" />
            <mxPoint x="996.94" y="996.63" as="targetPoint" />
          </mxGeometry>
        </mxCell>
        <mxCell id="XkU2QEyPw8NFJmjaPF2G-25" value="" style="ellipse;whiteSpace=wrap;html=1;aspect=fixed;fillStyle=solid;fillColor=none;" parent="1" vertex="1">
          <mxGeometry x="1369.96" y="1008.3800000000001" width="10" height="10" as="geometry" />
        </mxCell>
        <mxCell id="XkU2QEyPw8NFJmjaPF2G-26" value="" style="endArrow=none;html=1;rounded=0;exitX=0.05;exitY=0.006;exitDx=0;exitDy=0;exitPerimeter=0;" parent="1" edge="1">
          <mxGeometry width="50" height="50" relative="1" as="geometry">
            <mxPoint x="1374.96" y="1008.3800000000001" as="sourcePoint" />
            <mxPoint x="1374.9" y="996.38" as="targetPoint" />
          </mxGeometry>
        </mxCell>
        <mxCell id="XkU2QEyPw8NFJmjaPF2G-27" value="" style="ellipse;whiteSpace=wrap;html=1;aspect=fixed;fillStyle=solid;fillColor=none;" parent="1" vertex="1">
          <mxGeometry x="1440.96" y="1008.3800000000001" width="10" height="10" as="geometry" />
        </mxCell>
        <mxCell id="XkU2QEyPw8NFJmjaPF2G-28" value="" style="endArrow=none;html=1;rounded=0;exitX=0.05;exitY=0.006;exitDx=0;exitDy=0;exitPerimeter=0;" parent="1" edge="1">
          <mxGeometry width="50" height="50" relative="1" as="geometry">
            <mxPoint x="1445.96" y="1008.3800000000001" as="sourcePoint" />
            <mxPoint x="1445.9" y="996.38" as="targetPoint" />
          </mxGeometry>
        </mxCell>
        <mxCell id="XkU2QEyPw8NFJmjaPF2G-29" value="&lt;p style=&quot;line-height: 90%; font-size: 8px;&quot;&gt;Model Loss&lt;/p&gt;" style="text;html=1;strokeColor=none;fillColor=none;align=center;verticalAlign=middle;whiteSpace=wrap;rounded=0;" parent="1" vertex="1">
          <mxGeometry x="1355" y="1019.6300000000001" width="39.91" height="17.5" as="geometry" />
        </mxCell>
        <mxCell id="XkU2QEyPw8NFJmjaPF2G-33" value="" style="ellipse;whiteSpace=wrap;html=1;aspect=fixed;" parent="1" vertex="1">
          <mxGeometry x="1094.09" y="776.88" width="10" height="10" as="geometry" />
        </mxCell>
        <mxCell id="XkU2QEyPw8NFJmjaPF2G-34" value="" style="endArrow=none;html=1;rounded=0;movable=1;resizable=1;rotatable=1;deletable=1;editable=1;locked=0;connectable=1;exitX=0.001;exitY=0.16;exitDx=0;exitDy=0;exitPerimeter=0;" parent="1" edge="1">
          <mxGeometry width="50" height="50" relative="1" as="geometry">
            <mxPoint x="1094.09" y="781.81" as="sourcePoint" />
            <mxPoint x="1084" y="781.81" as="targetPoint" />
          </mxGeometry>
        </mxCell>
        <mxCell id="XkU2QEyPw8NFJmjaPF2G-35" value="&lt;p style=&quot;line-height: 90%; font-size: 8px;&quot;&gt;Number of Members&lt;/p&gt;" style="text;html=1;strokeColor=none;fillColor=none;align=center;verticalAlign=middle;whiteSpace=wrap;rounded=0;" parent="1" vertex="1">
          <mxGeometry x="1095" y="773.13" width="61" height="17.5" as="geometry" />
        </mxCell>
        <mxCell id="h_g5wV1BuuntD5DL4A6o-1" value="Doctor" style="whiteSpace=wrap;html=1;align=center;" parent="1" vertex="1">
          <mxGeometry x="1360.5" y="98.75" width="100" height="40" as="geometry" />
        </mxCell>
        <mxCell id="h_g5wV1BuuntD5DL4A6o-2" value="" style="ellipse;whiteSpace=wrap;html=1;aspect=fixed;" parent="1" vertex="1">
          <mxGeometry x="1363" y="76.75" width="10" height="10" as="geometry" />
        </mxCell>
        <mxCell id="h_g5wV1BuuntD5DL4A6o-3" value="" style="endArrow=none;html=1;rounded=0;exitX=0.05;exitY=0.006;exitDx=0;exitDy=0;exitPerimeter=0;" parent="1" edge="1">
          <mxGeometry width="50" height="50" relative="1" as="geometry">
            <mxPoint x="1368" y="98.75" as="sourcePoint" />
            <mxPoint x="1367.94" y="86.75" as="targetPoint" />
          </mxGeometry>
        </mxCell>
        <mxCell id="h_g5wV1BuuntD5DL4A6o-4" value="" style="ellipse;whiteSpace=wrap;html=1;aspect=fixed;fillStyle=solid;fillColor=#000000;" parent="1" vertex="1">
          <mxGeometry x="1448" y="76.75" width="10" height="10" as="geometry" />
        </mxCell>
        <mxCell id="h_g5wV1BuuntD5DL4A6o-5" value="" style="endArrow=none;html=1;rounded=0;exitX=0.05;exitY=0.006;exitDx=0;exitDy=0;exitPerimeter=0;" parent="1" edge="1">
          <mxGeometry width="50" height="50" relative="1" as="geometry">
            <mxPoint x="1453" y="98.75" as="sourcePoint" />
            <mxPoint x="1452.94" y="86.75" as="targetPoint" />
          </mxGeometry>
        </mxCell>
        <mxCell id="h_g5wV1BuuntD5DL4A6o-6" value="&lt;p style=&quot;line-height: 90%; font-size: 8px;&quot;&gt;Password&lt;/p&gt;" style="text;html=1;strokeColor=none;fillColor=none;align=center;verticalAlign=middle;whiteSpace=wrap;rounded=0;" parent="1" vertex="1">
          <mxGeometry x="1348" y="62" width="40" height="17.5" as="geometry" />
        </mxCell>
        <mxCell id="h_g5wV1BuuntD5DL4A6o-7" value="&lt;p style=&quot;line-height: 90%; font-size: 8px;&quot;&gt;ID&lt;/p&gt;" style="text;html=1;strokeColor=none;fillColor=none;align=center;verticalAlign=middle;whiteSpace=wrap;rounded=0;" parent="1" vertex="1">
          <mxGeometry x="1433" y="62" width="40" height="17.5" as="geometry" />
        </mxCell>
        <mxCell id="h_g5wV1BuuntD5DL4A6o-8" value="" style="ellipse;whiteSpace=wrap;html=1;aspect=fixed;" parent="1" vertex="1">
          <mxGeometry x="1340.41" y="97.63" width="10" height="10" as="geometry" />
        </mxCell>
        <mxCell id="h_g5wV1BuuntD5DL4A6o-9" value="" style="endArrow=none;html=1;rounded=0;movable=1;resizable=1;rotatable=1;deletable=1;editable=1;locked=0;connectable=1;exitX=0.001;exitY=0.16;exitDx=0;exitDy=0;exitPerimeter=0;" parent="1" edge="1">
          <mxGeometry width="50" height="50" relative="1" as="geometry">
            <mxPoint x="1360.5" y="102.53999999999996" as="sourcePoint" />
            <mxPoint x="1350.41" y="102.53999999999996" as="targetPoint" />
          </mxGeometry>
        </mxCell>
        <mxCell id="h_g5wV1BuuntD5DL4A6o-10" value="&lt;p style=&quot;line-height: 90%; font-size: 8px;&quot;&gt;Phone Number&lt;/p&gt;" style="text;html=1;strokeColor=none;fillColor=none;align=center;verticalAlign=middle;whiteSpace=wrap;rounded=0;" parent="1" vertex="1">
          <mxGeometry x="1302.5" y="93.88" width="40" height="17.5" as="geometry" />
        </mxCell>
        <mxCell id="h_g5wV1BuuntD5DL4A6o-11" value="" style="ellipse;whiteSpace=wrap;html=1;aspect=fixed;" parent="1" vertex="1">
          <mxGeometry x="1340.41" y="129.88" width="10" height="10" as="geometry" />
        </mxCell>
        <mxCell id="h_g5wV1BuuntD5DL4A6o-12" value="" style="endArrow=none;html=1;rounded=0;movable=1;resizable=1;rotatable=1;deletable=1;editable=1;locked=0;connectable=1;exitX=0.001;exitY=0.16;exitDx=0;exitDy=0;exitPerimeter=0;" parent="1" edge="1">
          <mxGeometry width="50" height="50" relative="1" as="geometry">
            <mxPoint x="1360.5" y="134.78999999999996" as="sourcePoint" />
            <mxPoint x="1350.41" y="134.78999999999996" as="targetPoint" />
          </mxGeometry>
        </mxCell>
        <mxCell id="h_g5wV1BuuntD5DL4A6o-13" value="&lt;p style=&quot;line-height: 90%; font-size: 8px;&quot;&gt;E-mail&lt;/p&gt;" style="text;html=1;strokeColor=none;fillColor=none;align=center;verticalAlign=middle;whiteSpace=wrap;rounded=0;" parent="1" vertex="1">
          <mxGeometry x="1305.5" y="126.13" width="40" height="17.5" as="geometry" />
        </mxCell>
        <mxCell id="h_g5wV1BuuntD5DL4A6o-14" value="" style="ellipse;whiteSpace=wrap;html=1;aspect=fixed;" parent="1" vertex="1">
          <mxGeometry x="1470.59" y="97.62" width="10" height="10" as="geometry" />
        </mxCell>
        <mxCell id="h_g5wV1BuuntD5DL4A6o-15" value="" style="endArrow=none;html=1;rounded=0;movable=1;resizable=1;rotatable=1;deletable=1;editable=1;locked=0;connectable=1;exitX=0.001;exitY=0.16;exitDx=0;exitDy=0;exitPerimeter=0;" parent="1" edge="1">
          <mxGeometry width="50" height="50" relative="1" as="geometry">
            <mxPoint x="1470.59" y="102.54999999999995" as="sourcePoint" />
            <mxPoint x="1460.5" y="102.54999999999995" as="targetPoint" />
          </mxGeometry>
        </mxCell>
        <mxCell id="h_g5wV1BuuntD5DL4A6o-16" value="&lt;p style=&quot;line-height: 90%; font-size: 8px;&quot;&gt;Name&lt;/p&gt;" style="text;html=1;strokeColor=none;fillColor=none;align=center;verticalAlign=middle;whiteSpace=wrap;rounded=0;" parent="1" vertex="1">
          <mxGeometry x="1474" y="93.86999999999999" width="40" height="17.5" as="geometry" />
        </mxCell>
        <mxCell id="h_g5wV1BuuntD5DL4A6o-17" value="" style="ellipse;whiteSpace=wrap;html=1;aspect=fixed;" parent="1" vertex="1">
          <mxGeometry x="1470.59" y="129.87" width="10" height="10" as="geometry" />
        </mxCell>
        <mxCell id="h_g5wV1BuuntD5DL4A6o-18" value="" style="endArrow=none;html=1;rounded=0;movable=1;resizable=1;rotatable=1;deletable=1;editable=1;locked=0;connectable=1;exitX=0.001;exitY=0.16;exitDx=0;exitDy=0;exitPerimeter=0;" parent="1" edge="1">
          <mxGeometry width="50" height="50" relative="1" as="geometry">
            <mxPoint x="1470.59" y="134.79999999999995" as="sourcePoint" />
            <mxPoint x="1460.5" y="134.79999999999995" as="targetPoint" />
          </mxGeometry>
        </mxCell>
        <mxCell id="h_g5wV1BuuntD5DL4A6o-19" value="&lt;p style=&quot;line-height: 90%; font-size: 8px;&quot;&gt;Surname&lt;/p&gt;" style="text;html=1;strokeColor=none;fillColor=none;align=center;verticalAlign=middle;whiteSpace=wrap;rounded=0;" parent="1" vertex="1">
          <mxGeometry x="1479.5" y="126.13000000000001" width="40" height="17.5" as="geometry" />
        </mxCell>
        <mxCell id="h_g5wV1BuuntD5DL4A6o-20" value="" style="endArrow=none;html=1;rounded=0;exitX=0.5;exitY=1;exitDx=0;exitDy=0;entryX=0.5;entryY=0;entryDx=0;entryDy=0;" parent="1" source="h_g5wV1BuuntD5DL4A6o-1" target="TxClS1IGf8YN1uUrBQyQ-40" edge="1">
          <mxGeometry relative="1" as="geometry">
            <mxPoint x="1411.2" y="138.62" as="sourcePoint" />
            <mxPoint x="1411.2" y="198.62" as="targetPoint" />
          </mxGeometry>
        </mxCell>
        <mxCell id="h_g5wV1BuuntD5DL4A6o-21" value="" style="ellipse;whiteSpace=wrap;html=1;aspect=fixed;" parent="1" vertex="1">
          <mxGeometry x="1029" y="512.13" width="10" height="10" as="geometry" />
        </mxCell>
        <mxCell id="h_g5wV1BuuntD5DL4A6o-22" value="" style="endArrow=none;html=1;rounded=0;exitX=0.05;exitY=0.006;exitDx=0;exitDy=0;exitPerimeter=0;" parent="1" edge="1">
          <mxGeometry width="50" height="50" relative="1" as="geometry">
            <mxPoint x="1034" y="534.13" as="sourcePoint" />
            <mxPoint x="1033.94" y="522.13" as="targetPoint" />
          </mxGeometry>
        </mxCell>
        <mxCell id="h_g5wV1BuuntD5DL4A6o-23" value="&lt;p style=&quot;line-height: 90%; font-size: 8px;&quot;&gt;Role&lt;/p&gt;" style="text;html=1;strokeColor=none;fillColor=none;align=center;verticalAlign=middle;whiteSpace=wrap;rounded=0;" parent="1" vertex="1">
          <mxGeometry x="1014" y="498.38" width="40" height="17.5" as="geometry" />
        </mxCell>
        <mxCell id="h_g5wV1BuuntD5DL4A6o-25" value="" style="ellipse;whiteSpace=wrap;html=1;aspect=fixed;fillStyle=solid;fillColor=none;" parent="1" vertex="1">
          <mxGeometry x="964.4100000000001" y="988" width="10" height="10" as="geometry" />
        </mxCell>
        <mxCell id="h_g5wV1BuuntD5DL4A6o-26" value="" style="endArrow=none;html=1;rounded=0;movable=1;resizable=1;rotatable=1;deletable=1;editable=1;locked=0;connectable=1;exitX=0.001;exitY=0.16;exitDx=0;exitDy=0;exitPerimeter=0;" parent="1" edge="1">
          <mxGeometry width="50" height="50" relative="1" as="geometry">
            <mxPoint x="984.5" y="992.91" as="sourcePoint" />
            <mxPoint x="974.4100000000001" y="992.91" as="targetPoint" />
          </mxGeometry>
        </mxCell>
        <mxCell id="h_g5wV1BuuntD5DL4A6o-27" value="&lt;p style=&quot;line-height: 90%; font-size: 8px;&quot;&gt;Need for Anonymization&lt;/p&gt;" style="text;html=1;strokeColor=none;fillColor=none;align=center;verticalAlign=middle;whiteSpace=wrap;rounded=0;" parent="1" vertex="1">
          <mxGeometry x="907" y="984.25" width="57" height="17.5" as="geometry" />
        </mxCell>
        <mxCell id="h_g5wV1BuuntD5DL4A6o-28" value="" style="ellipse;whiteSpace=wrap;html=1;aspect=fixed;fillStyle=solid;fillColor=#000000;" parent="1" vertex="1">
          <mxGeometry x="964.9100000000001" y="955.75" width="10" height="10" as="geometry" />
        </mxCell>
        <mxCell id="h_g5wV1BuuntD5DL4A6o-30" value="&lt;p style=&quot;line-height: 90%; font-size: 8px;&quot;&gt;Research ID&lt;/p&gt;" style="text;html=1;strokeColor=none;fillColor=none;align=center;verticalAlign=middle;whiteSpace=wrap;rounded=0;" parent="1" vertex="1">
          <mxGeometry x="924" y="952" width="40" height="17.5" as="geometry" />
        </mxCell>
        <mxCell id="h_g5wV1BuuntD5DL4A6o-35" value="" style="endArrow=none;html=1;rounded=0;entryX=0.5;entryY=1;entryDx=0;entryDy=0;exitX=0.5;exitY=1;exitDx=0;exitDy=0;" parent="1" edge="1">
          <mxGeometry relative="1" as="geometry">
            <mxPoint x="1034.46" y="902.88" as="sourcePoint" />
            <mxPoint x="1034.46" y="956.88" as="targetPoint" />
            <Array as="points" />
          </mxGeometry>
        </mxCell>
        <mxCell id="h_g5wV1BuuntD5DL4A6o-36" value="" style="endArrow=none;html=1;rounded=0;movable=1;resizable=1;rotatable=1;deletable=1;editable=1;locked=0;connectable=1;exitX=0.001;exitY=0.16;exitDx=0;exitDy=0;exitPerimeter=0;" parent="1" edge="1">
          <mxGeometry width="50" height="50" relative="1" as="geometry">
            <mxPoint x="984.5" y="960.91" as="sourcePoint" />
            <mxPoint x="974.4100000000001" y="960.91" as="targetPoint" />
          </mxGeometry>
        </mxCell>
        <mxCell id="h_g5wV1BuuntD5DL4A6o-37" value="&lt;font style=&quot;font-size: 8px;&quot;&gt;(0,N)&lt;/font&gt;" style="text;html=1;strokeColor=none;fillColor=none;align=center;verticalAlign=middle;whiteSpace=wrap;rounded=0;" parent="1" vertex="1">
          <mxGeometry x="1034" y="902.88" width="35" height="20" as="geometry" />
        </mxCell>
        <mxCell id="OwOuTbfvJu8bIq5LUOT3-1" value="" style="ellipse;whiteSpace=wrap;html=1;aspect=fixed;" parent="1" vertex="1">
          <mxGeometry x="964.9100000000001" y="337.5" width="10" height="10" as="geometry" />
        </mxCell>
        <mxCell id="OwOuTbfvJu8bIq5LUOT3-2" value="" style="endArrow=none;html=1;rounded=0;movable=1;resizable=1;rotatable=1;deletable=1;editable=1;locked=0;connectable=1;exitX=0.001;exitY=0.16;exitDx=0;exitDy=0;exitPerimeter=0;" parent="1" edge="1">
          <mxGeometry width="50" height="50" relative="1" as="geometry">
            <mxPoint x="985" y="342.40999999999997" as="sourcePoint" />
            <mxPoint x="974.9100000000001" y="342.40999999999997" as="targetPoint" />
          </mxGeometry>
        </mxCell>
        <mxCell id="OwOuTbfvJu8bIq5LUOT3-3" value="&lt;p style=&quot;line-height: 90%; font-size: 8px;&quot;&gt;Purpose&lt;/p&gt;" style="text;html=1;strokeColor=none;fillColor=none;align=center;verticalAlign=middle;whiteSpace=wrap;rounded=0;" parent="1" vertex="1">
          <mxGeometry x="927" y="333.75" width="40" height="17.5" as="geometry" />
        </mxCell>
        <mxCell id="OwOuTbfvJu8bIq5LUOT3-4" value="" style="ellipse;whiteSpace=wrap;html=1;aspect=fixed;" parent="1" vertex="1">
          <mxGeometry x="964.9100000000001" y="369.75" width="10" height="10" as="geometry" />
        </mxCell>
        <mxCell id="OwOuTbfvJu8bIq5LUOT3-5" value="" style="endArrow=none;html=1;rounded=0;movable=1;resizable=1;rotatable=1;deletable=1;editable=1;locked=0;connectable=1;exitX=0.001;exitY=0.16;exitDx=0;exitDy=0;exitPerimeter=0;" parent="1" edge="1">
          <mxGeometry width="50" height="50" relative="1" as="geometry">
            <mxPoint x="985" y="374.65999999999997" as="sourcePoint" />
            <mxPoint x="974.9100000000001" y="374.65999999999997" as="targetPoint" />
          </mxGeometry>
        </mxCell>
        <mxCell id="OwOuTbfvJu8bIq5LUOT3-6" value="&lt;p style=&quot;line-height: 90%; font-size: 8px;&quot;&gt;Duration&lt;/p&gt;" style="text;html=1;strokeColor=none;fillColor=none;align=center;verticalAlign=middle;whiteSpace=wrap;rounded=0;" parent="1" vertex="1">
          <mxGeometry x="927" y="366" width="40" height="17.5" as="geometry" />
        </mxCell>
        <mxCell id="WhdErbp-cGiMvKtKSSbG-1" value="" style="ellipse;whiteSpace=wrap;html=1;aspect=fixed;fillStyle=solid;fillColor=none;" parent="1" vertex="1">
          <mxGeometry x="1182.18" y="328.25" width="10" height="10" as="geometry" />
        </mxCell>
        <mxCell id="WhdErbp-cGiMvKtKSSbG-2" value="" style="endArrow=none;html=1;rounded=0;exitX=0.05;exitY=0.006;exitDx=0;exitDy=0;exitPerimeter=0;" parent="1" edge="1">
          <mxGeometry width="50" height="50" relative="1" as="geometry">
            <mxPoint x="1187.18" y="328.25" as="sourcePoint" />
            <mxPoint x="1187.1200000000001" y="316.25" as="targetPoint" />
          </mxGeometry>
        </mxCell>
        <mxCell id="WhdErbp-cGiMvKtKSSbG-4" value="&lt;p style=&quot;line-height: 90%; font-size: 8px;&quot;&gt;Patient ID&lt;/p&gt;" style="text;html=1;strokeColor=none;fillColor=none;align=center;verticalAlign=middle;whiteSpace=wrap;rounded=0;" parent="1" vertex="1">
          <mxGeometry x="1241.5500000000002" y="240.38" width="40" height="17.5" as="geometry" />
        </mxCell>
        <mxCell id="OxPVuWGuGxWRS7FKhJx6-1" value="&lt;p style=&quot;line-height: 90%; font-size: 8px;&quot;&gt;Name&lt;/p&gt;" style="text;html=1;strokeColor=none;fillColor=none;align=center;verticalAlign=middle;whiteSpace=wrap;rounded=0;" parent="1" vertex="1">
          <mxGeometry x="1054" y="1016.13" width="40" height="17.5" as="geometry" />
        </mxCell>
        <mxCell id="OxPVuWGuGxWRS7FKhJx6-2" value="" style="ellipse;whiteSpace=wrap;html=1;aspect=fixed;fillStyle=solid;fillColor=none;" parent="1" vertex="1">
          <mxGeometry x="1069" y="1008.63" width="10" height="10" as="geometry" />
        </mxCell>
        <mxCell id="OxPVuWGuGxWRS7FKhJx6-3" value="" style="endArrow=none;html=1;rounded=0;exitX=0.05;exitY=0.006;exitDx=0;exitDy=0;exitPerimeter=0;" parent="1" edge="1">
          <mxGeometry width="50" height="50" relative="1" as="geometry">
            <mxPoint x="1074" y="1008.63" as="sourcePoint" />
            <mxPoint x="1073.94" y="996.63" as="targetPoint" />
          </mxGeometry>
        </mxCell>
        <mxCell id="OxPVuWGuGxWRS7FKhJx6-4" value="" style="ellipse;whiteSpace=wrap;html=1;aspect=fixed;fillStyle=solid;fillColor=none;" parent="1" vertex="1">
          <mxGeometry x="1406.41" y="934.88" width="10" height="10" as="geometry" />
        </mxCell>
        <mxCell id="OxPVuWGuGxWRS7FKhJx6-5" value="" style="endArrow=none;html=1;rounded=0;exitX=0.05;exitY=0.006;exitDx=0;exitDy=0;exitPerimeter=0;" parent="1" edge="1">
          <mxGeometry width="50" height="50" relative="1" as="geometry">
            <mxPoint x="1411.41" y="956.88" as="sourcePoint" />
            <mxPoint x="1411.3500000000001" y="944.88" as="targetPoint" />
          </mxGeometry>
        </mxCell>
        <mxCell id="go4O_ch7UDAi5hMZ2mob-1" value="" style="endArrow=none;html=1;rounded=0;exitX=1;exitY=0.5;exitDx=0;exitDy=0;entryX=0.5;entryY=1;entryDx=0;entryDy=0;" parent="1" source="yA3WIeuCUDbB8ZDYc9Yh-21" target="yA3WIeuCUDbB8ZDYc9Yh-10" edge="1">
          <mxGeometry width="50" height="50" relative="1" as="geometry">
            <mxPoint x="1190" y="434.75" as="sourcePoint" />
            <mxPoint x="1035" y="390" as="targetPoint" />
            <Array as="points">
              <mxPoint x="1035" y="448" />
            </Array>
          </mxGeometry>
        </mxCell>
        <mxCell id="go4O_ch7UDAi5hMZ2mob-2" value="" style="ellipse;whiteSpace=wrap;html=1;aspect=fixed;fillStyle=solid;fillColor=none;" parent="1" vertex="1">
          <mxGeometry x="1095.18" y="353.25" width="10" height="10" as="geometry" />
        </mxCell>
        <mxCell id="go4O_ch7UDAi5hMZ2mob-4" value="" style="endArrow=none;html=1;rounded=0;movable=1;resizable=1;rotatable=1;deletable=1;editable=1;locked=0;connectable=1;" parent="1" source="go4O_ch7UDAi5hMZ2mob-3" edge="1">
          <mxGeometry width="50" height="50" relative="1" as="geometry">
            <mxPoint x="1081.5" y="390.95" as="sourcePoint" />
            <mxPoint x="975" y="391" as="targetPoint" />
          </mxGeometry>
        </mxCell>
        <mxCell id="go4O_ch7UDAi5hMZ2mob-5" value="" style="endArrow=none;html=1;rounded=0;movable=1;resizable=1;rotatable=1;deletable=1;editable=1;locked=0;connectable=1;" parent="1" target="go4O_ch7UDAi5hMZ2mob-3" edge="1">
          <mxGeometry width="50" height="50" relative="1" as="geometry">
            <mxPoint x="1093.5" y="390.95" as="sourcePoint" />
            <mxPoint x="1003.5" y="390.95" as="targetPoint" />
          </mxGeometry>
        </mxCell>
        <mxCell id="go4O_ch7UDAi5hMZ2mob-3" value="" style="ellipse;whiteSpace=wrap;html=1;aspect=fixed;fillStyle=solid;fillColor=#000000;" parent="1" vertex="1">
          <mxGeometry x="1087" y="386" width="10" height="10" as="geometry" />
        </mxCell>
        <mxCell id="go4O_ch7UDAi5hMZ2mob-6" value="" style="ellipse;whiteSpace=wrap;html=1;aspect=fixed;" parent="1" vertex="1">
          <mxGeometry x="963.9100000000001" y="764.5" width="10" height="10" as="geometry" />
        </mxCell>
        <mxCell id="go4O_ch7UDAi5hMZ2mob-7" value="" style="endArrow=none;html=1;rounded=0;movable=1;resizable=1;rotatable=1;deletable=1;editable=1;locked=0;connectable=1;exitX=0.001;exitY=0.16;exitDx=0;exitDy=0;exitPerimeter=0;" parent="1" edge="1">
          <mxGeometry width="50" height="50" relative="1" as="geometry">
            <mxPoint x="984" y="769.41" as="sourcePoint" />
            <mxPoint x="973.9100000000001" y="769.41" as="targetPoint" />
          </mxGeometry>
        </mxCell>
        <mxCell id="go4O_ch7UDAi5hMZ2mob-8" value="&lt;p style=&quot;line-height: 90%; font-size: 8px;&quot;&gt;Creator&lt;/p&gt;" style="text;html=1;strokeColor=none;fillColor=none;align=center;verticalAlign=middle;whiteSpace=wrap;rounded=0;" parent="1" vertex="1">
          <mxGeometry x="926" y="760.75" width="40" height="17.5" as="geometry" />
        </mxCell>
        <mxCell id="go4O_ch7UDAi5hMZ2mob-9" value="" style="ellipse;whiteSpace=wrap;html=1;aspect=fixed;fillStyle=solid;fillColor=#000000;" parent="1" vertex="1">
          <mxGeometry x="1345.96" y="996.3800000000001" width="10" height="10" as="geometry" />
        </mxCell>
        <mxCell id="go4O_ch7UDAi5hMZ2mob-10" value="" style="endArrow=none;html=1;rounded=0;exitX=0.5;exitY=0;exitDx=0;exitDy=0;" parent="1" source="go4O_ch7UDAi5hMZ2mob-9" edge="1">
          <mxGeometry width="50" height="50" relative="1" as="geometry">
            <mxPoint x="1351.96" y="996.3800000000001" as="sourcePoint" />
            <mxPoint x="1440" y="950" as="targetPoint" />
            <Array as="points">
              <mxPoint x="1351" y="950" />
            </Array>
          </mxGeometry>
        </mxCell>
        <mxCell id="oMRISutBHY554xon7jyf-5" value="" style="ellipse;whiteSpace=wrap;html=1;aspect=fixed;" parent="1" vertex="1">
          <mxGeometry x="1341" y="762" width="10" height="10" as="geometry" />
        </mxCell>
        <mxCell id="oMRISutBHY554xon7jyf-6" value="" style="endArrow=none;html=1;rounded=0;movable=1;resizable=1;rotatable=1;deletable=1;editable=1;locked=0;connectable=1;exitX=0.001;exitY=0.16;exitDx=0;exitDy=0;exitPerimeter=0;" parent="1" edge="1">
          <mxGeometry width="50" height="50" relative="1" as="geometry">
            <mxPoint x="1361.09" y="766.91" as="sourcePoint" />
            <mxPoint x="1351" y="766.91" as="targetPoint" />
          </mxGeometry>
        </mxCell>
        <mxCell id="oMRISutBHY554xon7jyf-7" value="&lt;p style=&quot;line-height: 90%; font-size: 8px;&quot;&gt;Number of Samples&lt;/p&gt;" style="text;html=1;strokeColor=none;fillColor=none;align=center;verticalAlign=middle;whiteSpace=wrap;rounded=0;" parent="1" vertex="1">
          <mxGeometry x="1285" y="758.25" width="61" height="17.5" as="geometry" />
        </mxCell>
        <mxCell id="VRKIslfTLT6CJXXas_KI-2" value="&lt;p style=&quot;line-height: 90%; font-size: 8px;&quot;&gt;ICD-O Code&lt;/p&gt;" style="text;html=1;strokeColor=none;fillColor=none;align=center;verticalAlign=middle;whiteSpace=wrap;rounded=0;" vertex="1" parent="1">
          <mxGeometry x="1391.55" y="916.3800000000001" width="39.91" height="17.5" as="geometry" />
        </mxCell>
      </root>
    </mxGraphModel>
  </diagram>
</mxfile>
